<svg width="497" height="163" viewBox="0 0 497 163" fill="none" xmlns="http://www.w3.org/2000/svg">
<path d="M0 162.859H496.969C496.909 162.785 496.848 162.71 496.788 162.635C496.78 162.626 496.768 162.611 496.76 162.602C496.711 162.542 496.66 162.478 496.611 162.418C496.595 162.399 496.581 162.383 496.567 162.365C496.517 162.305 496.467 162.243 496.419 162.183C496.408 162.171 496.399 162.159 496.389 162.147C496.269 162.002 496.148 161.855 496.028 161.71C496.013 161.691 495.996 161.671 495.98 161.653C495.937 161.602 495.896 161.55 495.853 161.499C495.833 161.477 495.813 161.451 495.795 161.429C495.747 161.371 495.701 161.318 495.655 161.261C495.643 161.247 495.629 161.23 495.617 161.217C495.557 161.146 495.497 161.073 495.437 161.002C495.428 160.991 495.416 160.977 495.407 160.966C495.359 160.909 495.307 160.847 495.26 160.791C495.24 160.769 495.223 160.747 495.203 160.723C495.163 160.675 495.121 160.627 495.08 160.579C495.059 160.554 495.036 160.527 495.015 160.502C494.973 160.454 494.929 160.402 494.889 160.354C494.872 160.334 494.855 160.313 494.836 160.293C494.779 160.225 494.721 160.157 494.663 160.09C494.644 160.067 494.627 160.047 494.607 160.025C494.567 159.977 494.523 159.926 494.483 159.879C494.459 159.851 494.433 159.822 494.409 159.795C494.376 159.755 494.343 159.717 494.308 159.677C494.28 159.645 494.253 159.614 494.225 159.582C494.187 159.537 494.151 159.495 494.112 159.45C494.092 159.427 494.068 159.401 494.048 159.377C493.991 159.31 493.936 159.247 493.877 159.181C493.853 159.154 493.827 159.122 493.803 159.095C493.769 159.057 493.736 159.018 493.701 158.979C493.672 158.945 493.643 158.913 493.612 158.878C493.584 158.845 493.555 158.811 493.525 158.778C493.493 158.742 493.461 158.706 493.429 158.669C493.397 158.633 493.369 158.601 493.337 158.565C493.289 158.51 493.236 158.451 493.188 158.397C493.156 158.361 493.124 158.323 493.092 158.289C493.056 158.247 493.021 158.21 492.985 158.169C492.964 158.143 492.936 158.114 492.915 158.089C492.876 158.046 492.839 158.005 492.8 157.962C492.784 157.942 492.764 157.921 492.747 157.902C492.707 157.857 492.664 157.809 492.623 157.763C492.613 157.753 492.6 157.738 492.591 157.727C492.507 157.634 492.42 157.537 492.336 157.445C492.321 157.429 492.308 157.413 492.292 157.397C492.252 157.351 492.216 157.311 492.175 157.266C492.152 157.242 492.135 157.222 492.112 157.198C492.076 157.157 492.037 157.115 492.001 157.075C491.979 157.05 491.959 157.029 491.936 157.003C491.795 156.849 491.651 156.693 491.509 156.538C491.501 156.53 491.495 156.523 491.488 156.515C491.443 156.466 491.401 156.421 491.356 156.373C491.341 156.355 491.323 156.335 491.307 156.319C491.261 156.27 491.219 156.223 491.173 156.175C491.165 156.167 491.159 156.159 491.152 156.151C490.996 155.985 490.836 155.813 490.68 155.646C490.677 155.643 490.677 155.643 490.675 155.641C490.623 155.585 490.572 155.53 490.519 155.475C490.515 155.47 490.511 155.466 490.505 155.459C468.34 131.917 437.489 116.325 405.388 112.415C405.385 112.414 405.38 112.414 405.376 112.413C405.304 112.405 405.227 112.395 405.155 112.386C405.147 112.386 405.132 112.383 405.124 112.383C405.055 112.374 404.98 112.366 404.911 112.358C404.9 112.357 404.888 112.355 404.877 112.354C404.657 112.327 404.44 112.302 404.22 112.278C404.205 112.275 404.191 112.274 404.176 112.273C404.109 112.265 404.044 112.258 403.977 112.25C403.956 112.249 403.933 112.246 403.912 112.243C403.848 112.237 403.78 112.229 403.717 112.222C403.709 112.221 403.701 112.221 403.695 112.219C403.559 112.205 403.413 112.189 403.277 112.175C403.263 112.173 403.247 112.171 403.232 112.17C403.177 112.165 403.12 112.158 403.065 112.153C403.029 112.149 402.996 112.145 402.959 112.142C402.904 112.135 402.851 112.13 402.796 112.125C402.763 112.121 402.729 112.118 402.696 112.114C402.641 112.109 402.587 112.103 402.533 112.098C402.504 112.095 402.471 112.091 402.441 112.089C402.344 112.079 402.24 112.069 402.143 112.059C402.103 112.055 402.064 112.053 402.024 112.049C401.979 112.043 401.925 112.039 401.88 112.034C401.839 112.03 401.796 112.026 401.756 112.023C401.708 112.018 401.66 112.014 401.611 112.009C401.563 112.005 401.521 112.001 401.473 111.997C401.428 111.993 401.388 111.989 401.343 111.985C401.259 111.977 401.173 111.969 401.088 111.962C401.057 111.959 401.024 111.957 400.993 111.954C400.935 111.949 400.879 111.943 400.82 111.938C400.777 111.934 400.739 111.931 400.696 111.927C400.645 111.923 400.596 111.919 400.545 111.914C400.503 111.911 400.461 111.907 400.419 111.903C400.363 111.899 400.308 111.895 400.253 111.89C400.216 111.887 400.187 111.885 400.151 111.882C400.065 111.875 399.976 111.867 399.892 111.861C399.859 111.858 399.824 111.855 399.791 111.853C399.732 111.849 399.673 111.843 399.615 111.839C399.577 111.837 399.539 111.833 399.501 111.83C399.447 111.826 399.393 111.822 399.339 111.818C399.301 111.815 399.263 111.813 399.227 111.81C399.16 111.805 399.092 111.799 399.027 111.795C399.001 111.793 398.979 111.791 398.953 111.79C398.865 111.783 398.773 111.777 398.684 111.77C398.66 111.769 398.632 111.767 398.608 111.765C398.537 111.761 398.472 111.755 398.401 111.751C398.375 111.749 398.348 111.747 398.32 111.745C398.251 111.741 398.181 111.735 398.111 111.731C398.087 111.73 398.061 111.727 398.036 111.726C397.848 111.714 397.657 111.702 397.469 111.69C397.457 111.69 397.449 111.689 397.437 111.689C397.352 111.683 397.269 111.678 397.184 111.674C397.167 111.673 397.148 111.671 397.129 111.67C397.049 111.666 396.972 111.661 396.891 111.657C396.876 111.655 396.857 111.654 396.843 111.654C396.651 111.643 396.459 111.633 396.268 111.623C396.252 111.622 396.241 111.622 396.225 111.621C396.144 111.617 396.063 111.613 395.981 111.609C395.963 111.607 395.945 111.606 395.927 111.606C395.845 111.602 395.76 111.598 395.679 111.594C395.667 111.593 395.653 111.593 395.64 111.591C395.449 111.583 395.252 111.574 395.06 111.566C395.048 111.566 395.039 111.565 395.027 111.565C394.941 111.561 394.855 111.558 394.769 111.554C394.757 111.554 394.739 111.553 394.727 111.553C394.635 111.549 394.541 111.545 394.449 111.542C394.445 111.541 394.447 111.542 394.444 111.541C394.248 111.534 394.048 111.527 393.853 111.521C393.841 111.519 393.835 111.519 393.823 111.519C393.731 111.517 393.644 111.514 393.551 111.511C393.543 111.51 393.541 111.51 393.532 111.51C393.233 111.501 392.939 111.493 392.64 111.486C392.633 111.486 392.633 111.486 392.627 111.486C392.531 111.483 392.435 111.481 392.339 111.479C392.333 111.479 392.335 111.479 392.329 111.479C392.029 111.473 391.733 111.467 391.435 111.463C391.432 111.463 391.42 111.463 391.417 111.463C391.317 111.462 391.227 111.461 391.127 111.459C391.124 111.459 391.128 111.459 391.125 111.459C390.825 111.455 390.524 111.453 390.224 111.451C390.221 111.451 390.217 111.451 390.215 111.451C381.416 111.41 372.607 112.279 363.945 114.133C363.943 114.134 363.937 114.135 363.933 114.135C363.661 114.194 363.392 114.253 363.12 114.313C363.051 114.329 362.983 114.343 362.913 114.359C337.663 120.001 311.555 132.967 287.244 124.115C265.171 116.077 253.144 92.9527 236.556 76.318C217.281 56.9874 190.039 45.8527 162.743 46.1514C144.675 46.3487 127.016 51.2941 109.061 53.3167C91.104 55.3381 71.612 54.0007 57.124 43.2034C50.0547 37.9367 44.6707 30.7794 38.5373 24.4474C38.456 24.3647 38.376 24.282 38.2947 24.1994C38.2693 24.1727 38.2427 24.146 38.216 24.1194C38.1613 24.0634 38.1067 24.0074 38.052 23.9514C38.0213 23.9207 37.988 23.8861 37.9573 23.8554C37.908 23.8047 37.8573 23.7541 37.8067 23.7034C37.7747 23.6701 37.744 23.6407 37.712 23.6074C37.6613 23.5567 37.6107 23.506 37.56 23.4554C37.528 23.422 37.496 23.3914 37.464 23.3581C37.412 23.3074 37.3627 23.2581 37.312 23.2074C37.2813 23.1767 37.2493 23.1447 37.2187 23.1141C37.1667 23.0634 37.1147 23.0114 37.0627 22.9607C37.0293 22.9274 37.0013 22.9007 36.9693 22.8674C36.916 22.8167 36.8627 22.7634 36.8107 22.7127C36.7813 22.6847 36.7507 22.654 36.7213 22.626C36.6667 22.5714 36.612 22.5181 36.5573 22.4647C36.528 22.4367 36.5 22.4087 36.4707 22.3807C36.4093 22.322 36.348 22.2621 36.2867 22.2034C36.2653 22.1834 36.244 22.162 36.224 22.142C36.14 22.062 36.0573 21.9834 35.9733 21.9034C35.8027 21.7394 35.632 21.5767 35.4587 21.4154C35.4427 21.3994 35.4253 21.3834 35.408 21.3674C35.34 21.3034 35.272 21.2407 35.204 21.1754C35.1827 21.1567 35.16 21.1341 35.1387 21.1154C35.076 21.0567 35.012 20.9967 34.9493 20.938C34.9253 20.9167 34.8987 20.8927 34.8747 20.8701C34.8133 20.8127 34.752 20.7567 34.6893 20.6994C34.6653 20.678 34.64 20.6527 34.616 20.6314C34.5547 20.5754 34.4947 20.5194 34.432 20.4634C34.4067 20.4407 34.38 20.4167 34.3547 20.3927C34.292 20.3367 34.2307 20.2794 34.168 20.2234C34.144 20.2021 34.1213 20.1807 34.0973 20.1594C34.032 20.0994 33.9667 20.0407 33.9 19.9821C33.8813 19.9647 33.8587 19.9434 33.8387 19.9261C33.7667 19.8607 33.6933 19.7954 33.62 19.7301C33.6053 19.7167 33.596 19.7087 33.58 19.6954C33.4947 19.618 33.408 19.5407 33.3213 19.4647L33.32 19.4634C33.052 19.2274 32.7827 18.9914 32.5133 18.7581C32.504 18.7501 32.492 18.7407 32.484 18.7327C32.4067 18.666 32.328 18.5994 32.2507 18.5327C32.2333 18.5167 32.2133 18.5007 32.196 18.4861C32.1253 18.4247 32.0533 18.3634 31.9827 18.3034C31.964 18.2874 31.944 18.27 31.9267 18.2554C31.856 18.1954 31.784 18.1341 31.7133 18.0741C31.696 18.0594 31.6733 18.0407 31.656 18.0261C31.584 17.9661 31.512 17.9047 31.44 17.8447C31.4227 17.83 31.4053 17.8154 31.388 17.8007C31.3133 17.7381 31.2373 17.6754 31.164 17.6141C31.1507 17.6021 31.132 17.5874 31.1187 17.5754C31.036 17.5074 30.9533 17.4381 30.8693 17.3701C30.8653 17.3661 30.8573 17.3594 30.8533 17.3554C30.3933 16.9767 29.9307 16.602 29.464 16.2314C29.46 16.2274 29.4533 16.2234 29.4493 16.2194C29.3613 16.15 29.2747 16.0807 29.1867 16.0114C29.1787 16.0047 29.1693 15.998 29.16 15.9914C29.0773 15.926 28.9947 15.8607 28.912 15.7954C28.9 15.7861 28.8853 15.7754 28.8747 15.7661C28.792 15.7021 28.7107 15.6381 28.628 15.5741C28.6173 15.5661 28.608 15.558 28.596 15.55C28.5147 15.486 28.4307 15.4221 28.3493 15.3581C28.3373 15.3501 28.3253 15.3394 28.3133 15.3314C28.2293 15.266 28.1453 15.2007 28.06 15.1367C28.0507 15.1301 28.044 15.1234 28.0347 15.1167C27.3733 14.6114 26.7053 14.114 26.032 13.626C26.0267 13.622 26.0187 13.6167 26.0147 13.6141C25.924 13.5487 25.8347 13.4834 25.744 13.418C25.7373 13.4127 25.7293 13.4074 25.7227 13.4034C25.6333 13.3394 25.544 13.2754 25.456 13.2114C25.448 13.2061 25.4373 13.1994 25.4307 13.194C25.3387 13.1287 25.2467 13.062 25.1533 12.9967C25.1533 12.9967 25.1493 12.994 25.1467 12.9914C17.428 7.52738 8.932 3.18339 0 0.000721784V162.859Z" fill="url(#paint0_linear_126_4828)"/>
<defs>
<linearGradient id="paint0_linear_126_4828" x1="215.431" y1="85.1418" x2="174.044" y2="214.269" gradientUnits="userSpaceOnUse">
<stop stop-color="#E9E0FD"/>
<stop offset="0.465688" stop-color="#DFD0FD"/>
<stop offset="1" stop-color="#DFD0FD"/>
</linearGradient>
</defs>
</svg>
