<svg width="515" height="163" viewBox="0 0 515 163" fill="none" xmlns="http://www.w3.org/2000/svg">
<path d="M0 0.000782802C2.47067 2.71278 5.05336 5.3221 7.74003 7.8261L7.74133 7.82744C7.78933 7.87278 7.84136 7.91944 7.88936 7.96477C7.90003 7.97544 7.91467 7.98743 7.92533 7.9981C8.07733 8.13943 8.22801 8.27944 8.38135 8.41944C8.39201 8.43011 8.39733 8.43412 8.408 8.44345C8.45467 8.48745 8.50269 8.53144 8.54936 8.57411C8.56269 8.58611 8.58135 8.60345 8.59469 8.61545C8.63869 8.65678 8.68667 8.69944 8.73067 8.74077C8.73601 8.74477 8.74536 8.75277 8.75069 8.75811C8.84002 8.83944 8.9267 8.91812 9.01603 9.00078C9.0387 9.02078 9.064 9.04478 9.08667 9.06345C9.12534 9.09945 9.16401 9.13413 9.20268 9.16879C9.22801 9.19146 9.256 9.21811 9.28133 9.24077C9.31733 9.27277 9.35735 9.3088 9.39335 9.34213C9.44535 9.3888 9.50001 9.43812 9.55334 9.48479C9.58934 9.51812 9.624 9.54879 9.66134 9.58212C9.696 9.61412 9.72934 9.64346 9.76534 9.67546C9.80001 9.70746 9.83333 9.7368 9.868 9.76747C9.90133 9.7968 9.93334 9.82477 9.96667 9.85544C9.99867 9.88344 10.032 9.91411 10.064 9.94211C10.12 9.99144 10.1787 10.0434 10.2334 10.0928C10.268 10.1234 10.3027 10.1541 10.3374 10.1848C10.3734 10.2168 10.412 10.2501 10.448 10.2821C10.4787 10.3088 10.5053 10.3328 10.5347 10.3595C10.576 10.3955 10.6253 10.4394 10.668 10.4754C10.6893 10.4954 10.712 10.5154 10.7347 10.5341C10.8013 10.5928 10.8614 10.6461 10.928 10.7048C10.9507 10.7235 10.9707 10.7421 10.992 10.7608C11.0427 10.8048 11.0893 10.8461 11.14 10.8888C11.164 10.9101 11.1814 10.9261 11.2054 10.9461C11.2694 11.0021 11.3333 11.0581 11.3973 11.1128C11.4 11.1155 11.4027 11.1181 11.4054 11.1208C11.4747 11.1808 11.548 11.2434 11.6173 11.3034C11.6333 11.3168 11.6467 11.3288 11.6627 11.3421C11.724 11.3955 11.7787 11.4435 11.8413 11.4955C11.8533 11.5075 11.8653 11.5168 11.8787 11.5288C12.024 11.6541 12.168 11.7768 12.3147 11.9021C12.3214 11.9074 12.3294 11.9141 12.336 11.9194C12.404 11.9781 12.4667 12.0315 12.5347 12.0888C12.544 12.0968 12.5573 12.1074 12.5653 12.1154C12.712 12.2394 12.86 12.3634 13.0067 12.4874C13.0133 12.4928 13.0213 12.4994 13.028 12.5048C13.4867 12.8901 13.9493 13.2741 14.4133 13.6541C45.9667 39.4741 89.1227 51.6368 129.08 42.7088C154.331 37.0688 180.439 24.0994 204.749 32.9541C226.824 40.9928 238.851 64.1168 255.437 80.7501C274.712 100.082 301.955 111.215 329.251 110.918C347.32 110.719 364.977 105.774 382.933 103.753C400.889 101.73 420.38 103.069 434.871 113.865C441.94 119.131 447.324 126.289 453.457 132.621C453.528 132.694 453.6 132.767 453.671 132.839C453.693 132.863 453.715 132.885 453.737 132.909C453.788 132.961 453.835 133.009 453.885 133.061C453.911 133.086 453.936 133.111 453.961 133.137C454.009 133.186 454.056 133.234 454.105 133.283C454.131 133.309 454.155 133.334 454.18 133.359C454.236 133.414 454.291 133.47 454.345 133.526C454.361 133.541 454.377 133.557 454.392 133.573C454.467 133.646 454.541 133.721 454.615 133.794C454.617 133.798 454.62 133.799 454.623 133.803C454.695 133.874 454.763 133.942 454.835 134.013C454.853 134.031 454.871 134.049 454.891 134.067C454.944 134.121 455 134.175 455.053 134.229C455.076 134.25 455.099 134.273 455.121 134.294C455.175 134.347 455.229 134.402 455.284 134.454C455.303 134.473 455.323 134.493 455.343 134.511C455.403 134.57 455.467 134.633 455.527 134.691C455.539 134.703 455.552 134.715 455.564 134.727C455.641 134.802 455.715 134.873 455.792 134.946C455.796 134.951 455.804 134.958 455.809 134.963C455.876 135.027 455.947 135.095 456.013 135.159C456.033 135.178 456.053 135.197 456.073 135.215C456.127 135.267 456.184 135.321 456.239 135.373C456.26 135.394 456.284 135.415 456.305 135.437C456.357 135.486 456.411 135.537 456.463 135.586C456.488 135.609 456.511 135.631 456.536 135.654C456.595 135.71 456.653 135.765 456.712 135.819C456.728 135.834 456.743 135.847 456.757 135.862C456.832 135.931 456.909 136.003 456.983 136.071C456.999 136.086 457.013 136.101 457.029 136.114C457.091 136.171 457.149 136.226 457.211 136.282C457.232 136.303 457.255 136.323 457.277 136.345C457.331 136.393 457.383 136.441 457.436 136.489C457.46 136.513 457.487 136.537 457.512 136.559C457.565 136.609 457.616 136.654 457.669 136.703C457.693 136.725 457.717 136.747 457.743 136.769C457.804 136.826 457.864 136.879 457.927 136.937C457.941 136.95 457.953 136.961 457.968 136.974C458.043 137.042 458.116 137.107 458.192 137.175C458.219 137.198 458.243 137.221 458.269 137.243C458.319 137.289 458.367 137.331 458.416 137.375C458.449 137.405 458.483 137.435 458.516 137.463C458.559 137.502 458.6 137.538 458.643 137.577C458.677 137.607 458.711 137.637 458.744 137.666C458.788 137.705 458.831 137.742 458.873 137.781C458.908 137.811 458.94 137.839 458.975 137.869C459.027 137.915 459.075 137.957 459.127 138.002C459.16 138.031 459.195 138.062 459.228 138.091C459.291 138.146 459.351 138.198 459.415 138.253C459.453 138.286 459.493 138.321 459.533 138.355C459.568 138.386 459.604 138.417 459.639 138.446C459.684 138.485 459.728 138.523 459.772 138.561C459.8 138.585 459.829 138.61 459.857 138.634C459.904 138.674 459.953 138.715 459.999 138.755C460.028 138.779 460.055 138.802 460.083 138.826C460.131 138.867 460.179 138.907 460.227 138.947C460.245 138.965 460.261 138.977 460.281 138.994C460.395 139.09 460.508 139.185 460.621 139.281C460.633 139.29 460.64 139.297 460.652 139.306C460.705 139.35 460.757 139.394 460.811 139.438C460.832 139.457 460.856 139.477 460.879 139.494C460.932 139.539 460.983 139.582 461.037 139.626C461.057 139.643 461.081 139.662 461.101 139.679C461.155 139.723 461.208 139.767 461.261 139.811C461.28 139.826 461.296 139.839 461.313 139.854C461.576 140.07 461.84 140.285 462.105 140.498C462.115 140.505 462.121 140.511 462.131 140.518C462.196 140.571 462.263 140.625 462.329 140.678C462.332 140.679 462.336 140.683 462.339 140.685C475.584 151.263 491.539 158.278 508.248 161.493C508.257 161.494 508.261 161.495 508.271 161.497C508.517 161.545 508.764 161.591 509.011 161.637C509.028 161.639 509.048 161.643 509.065 161.646C509.119 161.657 509.172 161.666 509.225 161.675C509.273 161.685 509.321 161.694 509.369 161.702C509.417 161.711 509.464 161.719 509.512 161.729C509.572 161.739 509.625 161.749 509.685 161.759C509.721 161.766 509.761 161.773 509.797 161.779C509.875 161.793 509.955 161.807 510.032 161.821C510.051 161.823 510.071 161.827 510.091 161.831C511.719 162.115 513.356 162.365 514.996 162.578V0.000782802H0Z" fill="url(#paint0_linear_126_3915)"/>
<defs>
<linearGradient id="paint0_linear_126_3915" x1="276.563" y1="71.9263" x2="317.95" y2="-57.2007" gradientUnits="userSpaceOnUse">
<stop stop-color="#E9E0FD"/>
<stop offset="0.465688" stop-color="#DFD0FD"/>
<stop offset="1" stop-color="#DFD0FD"/>
</linearGradient>
</defs>
</svg>
