<svg width="527" height="954" viewBox="0 0 527 954" fill="none" xmlns="http://www.w3.org/2000/svg">
<g clip-path="url(#clip0_169_37)">
<g opacity="0.6">
<path fill-rule="evenodd" clip-rule="evenodd" d="M753.286 239.799C843.8 261.153 940.462 271.662 1003.52 335.169C1077.8 409.972 1131.69 508.273 1113.83 602.905C1095.39 700.595 1005.72 767.672 912.32 818.259C816.93 869.924 708.675 900.959 594.571 884.142C466.325 865.241 320.918 826.294 259.484 722.044C199.633 620.48 266.079 506.982 312.524 405.527C349.42 324.931 401.964 248.252 491.853 214.453C573.544 183.737 664.431 218.835 753.286 239.799Z" stroke="#FFFBFB"/>
<path fill-rule="evenodd" clip-rule="evenodd" d="M815.993 201.991C934.527 231.545 1004.6 340.488 1058 440.395C1104.49 527.4 1113.84 622.188 1088.69 712.248C1064.3 799.592 1015.6 886.739 923.524 921.915C837.53 954.768 744.363 892.019 648.923 880.255C522.54 864.677 372.294 928.465 283.627 843.041C192.869 755.601 222.912 616.551 263.583 509.008C300.168 412.273 393.184 352.189 489.509 298.653C589.814 242.906 697.286 172.394 815.993 201.991Z" stroke="#FFFBFB"/>
<path fill-rule="evenodd" clip-rule="evenodd" d="M835.22 225.795C949.217 231.189 1069.93 298.395 1115.79 393.784C1159.1 483.855 1074.36 568.753 1043.48 658.92C1016.8 736.816 1019.47 826.603 949.971 877.904C870.931 936.249 759.809 975.662 658.541 943.066C560.571 911.531 537.683 802.571 477.323 725.767C409.654 639.663 257.222 569.508 289.219 473.131C321.597 375.606 494.817 414.878 595.711 369.173C685.13 328.666 732.346 220.926 835.22 225.795Z" stroke="#FFFBFB"/>
<path fill-rule="evenodd" clip-rule="evenodd" d="M783.314 209.137C892.53 230.012 977.262 315.984 1025.11 407.247C1068.01 489.05 1030.81 574.332 1020.51 661.505C1007.91 768.071 1056 904.906 959.25 964.571C861.932 1024.59 728.644 943.719 609.441 915.02C488.974 886.018 336.615 895.609 271.639 799.029C206.853 702.732 277.193 588.578 323.353 489.782C359.817 411.736 423.713 354.591 501.453 307.158C587.35 254.748 677.438 188.901 783.314 209.137Z" stroke="#FFFBFB"/>
<path fill-rule="evenodd" clip-rule="evenodd" d="M761.558 248.041C844.571 277.898 941.109 278.979 998.074 341.502C1061.37 410.976 1073.39 500.834 1070.87 587.526C1067.57 700.743 1078.21 831.376 981.79 900.344C879.03 973.846 725.208 966.446 593.9 928.691C467.993 892.49 358.978 810.95 300.203 704.371C246.355 606.724 272.614 499.517 301.214 397.945C328.665 300.449 351.825 181.248 457.155 146.948C558.841 113.836 657.039 210.448 761.558 248.041Z" stroke="#FFFBFB"/>
<path fill-rule="evenodd" clip-rule="evenodd" d="M744.427 296.502C858.307 320.615 1015.81 285.079 1070.14 378.911C1125.05 473.764 986.762 556.427 951.241 653.714C922.231 733.169 963.498 844.987 884.214 888.129C804.765 931.363 704.971 859.163 610.808 838.963C510.204 817.382 381.685 845.056 322.532 767.64C263.111 689.875 338.221 596.25 357.507 507.465C377.681 414.596 346.995 293.272 436.134 244.67C525.515 195.936 638.376 274.048 744.427 296.502Z" stroke="#FFFBFB"/>
<path fill-rule="evenodd" clip-rule="evenodd" d="M757.63 266.283C839.704 290.452 901.78 343.601 957.393 403.849C1026.2 478.397 1110.31 552.845 1108.51 646.415C1106.45 754.092 1055.48 870.785 947.6 913.936C843.426 955.605 727.626 878.866 615.412 843.651C516.336 812.559 406.939 798.746 341.933 723.867C270.875 642.017 231.033 532.756 263.477 438.265C294.506 347.894 399.867 302.873 498.239 268.636C580.378 240.049 670.651 240.669 757.63 266.283Z" stroke="#FFFBFB"/>
<path fill-rule="evenodd" clip-rule="evenodd" d="M752.562 249.901C848.993 275.197 911.705 353.926 966.042 430.574C1021.02 508.117 1068.09 591.655 1057.32 679.786C1045.39 777.38 1005.8 885.307 905.866 922.899C809.809 959.033 704.122 889.827 604.737 850.035C527.519 819.119 456.738 782.697 404.927 722.335C345.748 653.389 284.721 575.492 298.085 492.77C312.051 406.319 390.408 345.337 472.956 301.224C556.628 256.51 654.943 224.293 752.562 249.901Z" stroke="#FFFBFB"/>
</g>
</g>
<defs>
<clipPath id="clip0_169_37">
<rect width="527" height="954" fill="white"/>
</clipPath>
</defs>
</svg>
