<svg width="1039" height="959" viewBox="0 0 1039 959" fill="none" xmlns="http://www.w3.org/2000/svg">
<g opacity="0.6">
<path fill-rule="evenodd" clip-rule="evenodd" d="M588.286 152.799C678.8 174.153 775.462 184.662 838.521 248.169C912.796 322.972 966.694 421.273 948.829 515.905C930.386 613.595 840.72 680.672 747.32 731.259C651.93 782.924 543.675 813.959 429.571 797.142C301.325 778.241 155.918 739.294 94.4836 635.044C34.6326 533.48 101.079 419.982 147.524 318.527C184.42 237.931 236.964 161.252 326.853 127.453C408.544 96.7372 499.431 131.835 588.286 152.799Z" stroke="#FFFBFB"/>
<path fill-rule="evenodd" clip-rule="evenodd" d="M650.993 114.991C769.527 144.545 839.603 253.488 892.996 353.395C939.494 440.4 948.839 535.188 923.688 625.248C899.296 712.592 850.599 799.739 758.524 834.915C672.53 867.768 579.363 805.019 483.923 793.255C357.54 777.677 207.294 841.465 118.627 756.041C27.8688 668.601 57.912 529.551 98.5835 422.008C135.168 325.273 228.184 265.189 324.509 211.653C424.814 155.906 532.286 85.3936 650.993 114.991Z" stroke="#FFFBFB"/>
<path fill-rule="evenodd" clip-rule="evenodd" d="M670.22 138.795C784.217 144.189 904.928 211.395 950.794 306.784C994.102 396.855 909.361 481.753 878.477 571.92C851.796 649.816 854.469 739.603 784.971 790.904C705.931 849.249 594.809 888.662 493.541 856.066C395.571 824.531 372.683 715.571 312.323 638.767C244.654 552.663 92.2225 482.508 124.219 386.131C156.597 288.606 329.817 327.878 430.711 282.173C520.13 241.666 567.346 133.926 670.22 138.795Z" stroke="#FFFBFB"/>
<path fill-rule="evenodd" clip-rule="evenodd" d="M618.314 122.137C727.53 143.012 812.262 228.984 860.115 320.247C903.007 402.05 865.81 487.332 855.508 574.505C842.913 681.071 890.996 817.906 794.25 877.571C696.932 937.59 563.644 856.719 444.441 828.02C323.974 799.018 171.615 808.609 106.639 712.029C41.8529 615.732 112.193 501.578 158.353 402.782C194.817 324.736 258.713 267.591 336.453 220.158C422.35 167.748 512.438 101.901 618.314 122.137Z" stroke="#FFFBFB"/>
<path fill-rule="evenodd" clip-rule="evenodd" d="M596.558 161.041C679.571 190.898 776.109 191.979 833.074 254.502C896.373 323.976 908.392 413.834 905.866 500.526C902.567 613.743 913.21 744.376 816.79 813.344C714.03 886.846 560.208 879.446 428.9 841.691C302.993 805.49 193.978 723.95 135.203 617.371C81.3551 519.724 107.614 412.517 136.214 310.945C163.665 213.449 186.825 94.2475 292.155 59.9485C393.841 26.836 492.039 123.448 596.558 161.041Z" stroke="#FFFBFB"/>
<path fill-rule="evenodd" clip-rule="evenodd" d="M579.427 209.502C693.307 233.615 850.811 198.079 905.137 291.911C960.053 386.764 821.762 469.427 786.241 566.714C757.231 646.169 798.498 757.987 719.214 801.129C639.765 844.363 539.971 772.163 445.808 751.963C345.204 730.382 216.685 758.056 157.532 680.64C98.1109 602.875 173.221 509.25 192.507 420.465C212.681 327.596 181.995 206.272 271.134 157.67C360.515 108.936 473.376 187.048 579.427 209.502Z" stroke="#FFFBFB"/>
<path fill-rule="evenodd" clip-rule="evenodd" d="M592.63 179.283C674.704 203.452 736.78 256.601 792.393 316.849C861.205 391.397 945.31 465.845 943.514 559.415C941.447 667.092 890.479 783.785 782.6 826.936C678.426 868.605 562.626 791.866 450.412 756.651C351.336 725.559 241.939 711.746 176.933 636.867C105.875 555.017 66.0331 445.756 98.477 351.265C129.506 260.894 234.867 215.873 333.239 181.636C415.378 153.049 505.651 153.669 592.63 179.283Z" stroke="#FFFBFB"/>
<path fill-rule="evenodd" clip-rule="evenodd" d="M587.562 162.901C683.993 188.197 746.705 266.926 801.042 343.574C856.016 421.117 903.094 504.655 892.322 592.786C880.393 690.38 840.799 798.307 740.866 835.899C644.809 872.033 539.122 802.827 439.737 763.035C362.519 732.119 291.738 695.697 239.927 635.335C180.748 566.389 119.721 488.492 133.085 405.77C147.051 319.319 225.408 258.337 307.956 214.224C391.628 169.51 489.943 137.293 587.562 162.901Z" stroke="#FFFBFB"/>
</g>
</svg>
