<svg width="527" height="954" viewBox="0 0 527 954" fill="none" xmlns="http://www.w3.org/2000/svg">
<g clip-path="url(#clip0_169_37)">
<g opacity="0.6">
<path fill-rule="evenodd" clip-rule="evenodd" d="M-65.714 152.799C24.8004 174.153 121.462 184.662 184.521 248.169C258.796 322.972 312.694 421.273 294.829 515.905C276.386 613.595 186.72 680.672 93.3198 731.259C-2.06986 782.924 -110.325 813.959 -224.429 797.142C-352.675 778.241 -498.082 739.294 -559.516 635.044C-619.367 533.48 -552.921 419.982 -506.476 318.527C-469.58 237.931 -417.036 161.252 -327.147 127.453C-245.456 96.7372 -154.569 131.835 -65.714 152.799Z" stroke="#FFFBFB"/>
<path fill-rule="evenodd" clip-rule="evenodd" d="M-3.00678 114.991C115.527 144.545 185.603 253.488 238.996 353.395C285.494 440.4 294.839 535.188 269.688 625.248C245.296 712.592 196.599 799.739 104.524 834.915C18.5303 867.768 -74.6374 805.019 -170.077 793.255C-296.46 777.677 -446.706 841.465 -535.373 756.041C-626.131 668.601 -596.088 529.551 -555.417 422.008C-518.832 325.273 -425.816 265.189 -329.491 211.653C-229.186 155.906 -121.714 85.3936 -3.00678 114.991Z" stroke="#FFFBFB"/>
<path fill-rule="evenodd" clip-rule="evenodd" d="M16.2195 138.795C130.217 144.189 250.928 211.395 296.794 306.784C340.102 396.855 255.361 481.753 224.477 571.92C197.796 649.816 200.469 739.603 130.971 790.904C51.9308 849.249 -59.1911 888.662 -160.459 856.066C-258.429 824.531 -281.317 715.571 -341.677 638.767C-409.346 552.663 -561.778 482.508 -529.781 386.131C-497.403 288.606 -324.183 327.878 -223.289 282.173C-133.87 241.666 -86.6538 133.926 16.2195 138.795Z" stroke="#FFFBFB"/>
<path fill-rule="evenodd" clip-rule="evenodd" d="M-35.6859 122.137C73.5295 143.012 158.262 228.984 206.115 320.247C249.007 402.05 211.81 487.332 201.508 574.505C188.913 681.071 236.996 817.906 140.25 877.571C42.9321 937.59 -90.3564 856.719 -209.559 828.02C-330.026 799.018 -482.385 808.609 -547.361 712.029C-612.147 615.732 -541.807 501.578 -495.647 402.782C-459.183 324.736 -395.287 267.591 -317.547 220.158C-231.65 167.748 -141.562 101.901 -35.6859 122.137Z" stroke="#FFFBFB"/>
<path fill-rule="evenodd" clip-rule="evenodd" d="M-57.4422 161.041C25.5714 190.898 122.109 191.979 179.074 254.502C242.373 323.976 254.392 413.834 251.866 500.526C248.567 613.743 259.21 744.376 162.79 813.344C60.0296 886.846 -93.7923 879.446 -225.1 841.691C-351.007 805.49 -460.022 723.95 -518.797 617.371C-572.645 519.724 -546.386 412.517 -517.786 310.945C-490.335 213.449 -467.175 94.2475 -361.845 59.9485C-260.159 26.836 -161.961 123.448 -57.4422 161.041Z" stroke="#FFFBFB"/>
<path fill-rule="evenodd" clip-rule="evenodd" d="M-74.573 209.502C39.3066 233.615 196.811 198.079 251.137 291.911C306.053 386.764 167.762 469.427 132.241 566.714C103.231 646.169 144.498 757.987 65.2143 801.129C-14.235 844.363 -114.029 772.163 -208.192 751.963C-308.796 730.382 -437.315 758.056 -496.468 680.64C-555.889 602.875 -480.779 509.25 -461.493 420.465C-441.319 327.596 -472.005 206.272 -382.866 157.67C-293.485 108.936 -180.624 187.048 -74.573 209.502Z" stroke="#FFFBFB"/>
<path fill-rule="evenodd" clip-rule="evenodd" d="M-61.37 179.283C20.704 203.452 82.7804 256.601 138.393 316.849C207.205 391.397 291.31 465.845 289.514 559.415C287.447 667.092 236.479 783.785 128.6 826.936C24.4264 868.605 -91.3735 791.866 -203.588 756.651C-302.664 725.559 -412.061 711.746 -477.067 636.867C-548.125 555.017 -587.967 445.756 -555.523 351.265C-524.494 260.894 -419.133 215.873 -320.761 181.636C-238.622 153.049 -148.349 153.669 -61.37 179.283Z" stroke="#FFFBFB"/>
<path fill-rule="evenodd" clip-rule="evenodd" d="M-66.4379 162.901C29.9928 188.197 92.7046 266.926 147.042 343.574C202.016 421.117 249.094 504.655 238.322 592.786C226.393 690.38 186.799 798.307 86.8657 835.899C-9.19124 872.033 -114.878 802.827 -214.263 763.035C-291.481 732.119 -362.262 695.697 -414.073 635.335C-473.252 566.389 -534.279 488.492 -520.915 405.77C-506.949 319.319 -428.592 258.337 -346.044 214.224C-262.372 169.51 -164.057 137.293 -66.4379 162.901Z" stroke="#FFFBFB"/>
</g>
</g>
<defs>
<clipPath id="clip0_169_37">
<rect width="527" height="954" fill="white"/>
</clipPath>
</defs>
</svg>
