<svg width="489" height="478" viewBox="0 0 489 478" fill="none" xmlns="http://www.w3.org/2000/svg">
<mask id="mask0_48_1946" style="mask-type:luminance" maskUnits="userSpaceOnUse" x="105" y="123" width="280" height="232">
<path d="M105 123H384.328V354.176H105V123Z" fill="white"/>
</mask>
<g mask="url(#mask0_48_1946)">
<path d="M181.776 123.014C245.159 123.948 327.326 172.448 365.295 231.334C403.267 290.228 382.668 337.213 319.286 336.28C255.903 335.345 173.742 286.846 135.77 227.953C97.8003 169.065 118.394 122.08 181.776 123.014Z" fill="url(#paint0_linear_48_1946)"/>
<mask id="mask1_48_1946" style="mask-type:luminance" maskUnits="userSpaceOnUse" x="116" y="123" width="269" height="214">
<path d="M321.131 334.961C320.523 334.961 319.92 334.956 319.304 334.946C256.419 334.02 174.588 285.698 136.891 227.23C117.872 197.737 113.024 169.706 123.587 150.328C132.724 133.565 152.732 124.333 179.927 124.333C180.535 124.333 181.14 124.338 181.756 124.348C244.644 125.273 326.476 173.593 364.174 232.057C383.191 261.552 388.039 289.584 377.476 308.964C368.339 325.728 348.328 334.961 321.131 334.961ZM365.294 231.334C327.326 172.448 245.159 123.948 181.776 123.014C118.394 122.08 97.8003 169.065 135.77 227.953C173.742 286.846 255.903 335.346 319.286 336.28C382.668 337.213 403.267 290.228 365.294 231.334Z" fill="white"/>
</mask>
<g mask="url(#mask1_48_1946)">
<mask id="mask2_48_1946" style="mask-type:luminance" maskUnits="userSpaceOnUse" x="-44805" y="-43280" width="87381" height="87381">
<path d="M-44804.8 -43279.5H42575.2V44100.5H-44804.8V-43279.5Z" fill="url(#paint1_linear_48_1946)"/>
</mask>
<g mask="url(#mask2_48_1946)">
<path d="M321.131 334.961C320.523 334.961 319.92 334.955 319.304 334.946C256.419 334.019 174.588 285.698 136.891 227.23C117.872 197.737 113.024 169.706 123.587 150.327C132.724 133.565 152.732 124.333 179.927 124.333C180.535 124.333 181.14 124.338 181.756 124.347C244.644 125.273 326.476 173.593 364.174 232.057C383.191 261.551 388.039 289.583 377.476 308.963C368.339 325.727 348.328 334.961 321.131 334.961ZM365.294 231.334C327.326 172.447 245.159 123.947 181.776 123.014C118.394 122.079 97.8003 169.065 135.77 227.953C173.742 286.846 255.903 335.346 319.286 336.279C382.668 337.213 403.267 290.227 365.294 231.334Z" fill="url(#paint2_linear_48_1946)"/>
</g>
</g>
<path d="M272.519 263.741C252.251 263.442 225.98 247.936 213.84 229.108C201.698 210.274 208.283 195.253 228.552 195.552C248.816 195.85 275.086 211.356 287.228 230.189C299.368 249.017 292.783 264.04 272.519 263.741ZM330.383 230.825C303.96 189.846 246.796 156.104 202.699 155.454C158.595 154.804 144.264 187.493 170.687 228.472C197.106 269.445 254.274 303.193 298.376 303.844C342.474 304.493 356.802 271.798 330.383 230.825Z" fill="url(#paint3_linear_48_1946)"/>
<path d="M362.845 333.601C363.014 333.389 363.182 333.176 363.346 332.96C363.959 332.156 364.554 331.34 365.107 330.496L376.846 312.615C376.293 313.457 375.698 314.273 375.085 315.077C374.921 315.293 374.753 315.507 374.583 315.72C374.042 316.403 373.481 317.072 372.895 317.724C372.79 317.841 372.691 317.963 372.586 318.079C371.931 318.792 371.243 319.481 370.535 320.159C369.854 320.811 369.135 321.437 368.405 322.055C368.165 322.257 367.941 322.472 367.695 322.671C366.705 323.473 365.671 324.244 364.597 324.983C364.333 325.163 364.049 325.327 363.781 325.503C362.951 326.048 362.109 326.585 361.231 327.092C360.811 327.336 360.37 327.561 359.938 327.796C359.174 328.211 358.403 328.619 357.605 329.004C357.046 329.275 356.474 329.535 355.898 329.791C355.326 330.045 354.753 330.299 354.163 330.54C353.543 330.793 352.906 331.033 352.267 331.271C351.662 331.496 351.057 331.721 350.435 331.932C349.779 332.155 349.105 332.363 348.43 332.568C347.793 332.764 347.155 332.959 346.501 333.14C345.809 333.331 345.099 333.504 344.389 333.679C343.718 333.843 343.049 334.009 342.363 334.157C341.626 334.319 340.871 334.461 340.115 334.603C339.431 334.732 338.75 334.864 338.051 334.979C337.275 335.107 336.479 335.213 335.683 335.323C334.97 335.42 334.262 335.523 333.534 335.605C332.721 335.697 331.887 335.768 331.057 335.843C330.314 335.908 329.578 335.98 328.821 336.031C327.97 336.088 327.097 336.121 326.226 336.16C325.459 336.193 324.697 336.233 323.915 336.252C322.395 336.287 320.858 336.303 319.286 336.28C317.465 336.253 315.623 336.177 313.773 336.072C313.183 336.039 312.59 335.989 311.999 335.948C310.713 335.86 309.423 335.757 308.126 335.632C307.449 335.567 306.769 335.495 306.09 335.42C304.823 335.28 303.551 335.123 302.275 334.949C301.622 334.86 300.97 334.776 300.314 334.679C299.295 334.528 298.269 334.349 297.243 334.179C296.087 333.984 294.93 333.792 293.767 333.573C292.777 333.387 291.782 333.177 290.787 332.973C289.625 332.733 288.461 332.492 287.294 332.227C286.289 332 285.279 331.753 284.271 331.508C283.106 331.224 281.939 330.936 280.77 330.628C279.753 330.36 278.734 330.077 277.714 329.792C276.546 329.464 275.377 329.131 274.206 328.781C273.179 328.475 272.153 328.155 271.125 327.832C269.954 327.463 268.783 327.085 267.611 326.695C266.581 326.351 265.55 325.997 264.519 325.636C263.346 325.225 262.173 324.805 260.999 324.373C259.967 323.995 258.937 323.608 257.905 323.212C256.731 322.761 255.557 322.299 254.383 321.827C253.353 321.413 252.322 320.995 251.293 320.565C250.118 320.075 248.946 319.571 247.774 319.061C246.749 318.615 245.723 318.167 244.701 317.705C243.526 317.176 242.353 316.631 241.182 316.081C240.165 315.605 239.146 315.128 238.131 314.637C236.959 314.069 235.79 313.484 234.621 312.897C233.615 312.392 232.609 311.889 231.606 311.371C230.433 310.763 229.266 310.137 228.098 309.512C227.109 308.98 226.117 308.455 225.131 307.911C223.958 307.263 222.791 306.595 221.623 305.929C220.655 305.376 219.685 304.831 218.722 304.265C217.545 303.575 216.377 302.864 215.207 302.155C214.266 301.585 213.322 301.023 212.387 300.441C211.195 299.701 210.017 298.937 208.835 298.179C207.938 297.603 207.037 297.036 206.146 296.451C204.925 295.647 203.718 294.819 202.51 293.996C201.673 293.427 200.83 292.868 199.999 292.291C198.703 291.388 197.426 290.461 196.145 289.537C195.421 289.016 194.687 288.505 193.969 287.976C192.393 286.817 190.839 285.632 189.291 284.443C188.887 284.132 188.474 283.832 188.071 283.52C186.13 282.011 184.211 280.477 182.318 278.923C181.766 278.469 181.231 278.003 180.685 277.545C179.351 276.433 178.018 275.323 176.713 274.189C175.999 273.571 175.307 272.935 174.602 272.309C173.485 271.32 172.363 270.333 171.267 269.328C169.627 267.821 168.009 266.303 166.419 264.764C166.241 264.591 166.07 264.413 165.891 264.24C164.479 262.865 163.085 261.479 161.715 260.079C161.193 259.544 160.685 259.001 160.169 258.464C159.157 257.412 158.151 256.357 157.166 255.292C156.59 254.668 156.025 254.039 155.457 253.411C154.549 252.407 153.649 251.399 152.763 250.384C152.21 249.749 151.663 249.112 151.118 248.473C150.247 247.451 149.391 246.421 148.545 245.388C148.026 244.756 147.506 244.123 146.997 243.487C146.114 242.383 145.253 241.271 144.399 240.157C143.967 239.593 143.526 239.032 143.102 238.464C141.979 236.965 140.886 235.457 139.819 233.941C139.69 233.757 139.551 233.576 139.423 233.392C138.165 231.589 136.945 229.776 135.77 227.953C134.987 226.74 134.237 225.533 133.505 224.331C133.282 223.965 133.069 223.603 132.851 223.24C132.331 222.372 131.825 221.507 131.331 220.645C131.114 220.267 130.897 219.888 130.685 219.511C130.131 218.521 129.594 217.537 129.073 216.557C128.965 216.355 128.85 216.151 128.745 215.948C128.13 214.777 127.542 213.613 126.977 212.455C126.857 212.209 126.743 211.965 126.626 211.72C125.959 210.337 125.325 208.961 124.727 207.596C124.663 207.451 124.594 207.303 124.531 207.157C123.913 205.731 123.342 204.316 122.798 202.909C122.689 202.627 122.578 202.344 122.473 202.061C121.951 200.68 121.462 199.309 121.014 197.951C120.938 197.724 120.87 197.499 120.797 197.273C120.37 195.951 119.973 194.637 119.614 193.339C119.582 193.221 119.545 193.103 119.514 192.985C119.146 191.633 118.825 190.297 118.531 188.971C118.473 188.708 118.414 188.445 118.358 188.183C118.085 186.888 117.842 185.604 117.638 184.335C117.602 184.115 117.573 183.895 117.539 183.675C117.35 182.425 117.187 181.187 117.066 179.965C117.058 179.88 117.045 179.793 117.037 179.709C116.917 178.447 116.841 177.203 116.793 175.971C116.783 175.729 116.771 175.488 116.765 175.249C116.731 174.053 116.729 172.871 116.763 171.705C116.77 171.495 116.782 171.287 116.79 171.077C116.837 169.916 116.91 168.768 117.023 167.639C117.03 167.581 117.033 167.524 117.038 167.467C117.159 166.309 117.326 165.175 117.518 164.053C117.555 163.837 117.59 163.62 117.63 163.405C117.83 162.321 118.062 161.253 118.327 160.205C118.377 160.011 118.431 159.82 118.483 159.627C118.766 158.564 119.075 157.516 119.427 156.491C119.437 156.464 119.445 156.436 119.454 156.409C119.813 155.371 120.218 154.357 120.647 153.359C120.727 153.172 120.805 152.984 120.887 152.799C121.315 151.841 121.774 150.903 122.266 149.984C122.359 149.808 122.458 149.636 122.554 149.463C123.078 148.516 123.625 147.584 124.218 146.68C124.218 146.68 124.218 146.679 124.219 146.679L112.481 164.56C111.887 165.465 111.339 166.399 110.815 167.345C110.719 167.519 110.621 167.691 110.527 167.865C110.035 168.784 109.577 169.724 109.149 170.681C109.066 170.867 108.989 171.055 108.909 171.24C108.479 172.24 108.074 173.252 107.714 174.292C107.706 174.317 107.698 174.345 107.689 174.371C107.337 175.397 107.029 176.447 106.743 177.511C106.693 177.703 106.638 177.893 106.589 178.087C106.323 179.136 106.091 180.204 105.891 181.288C105.851 181.501 105.817 181.719 105.779 181.935C105.587 183.057 105.421 184.192 105.299 185.351C105.294 185.405 105.291 185.461 105.286 185.516C105.171 186.648 105.098 187.799 105.051 188.963C105.043 189.171 105.031 189.377 105.025 189.585C104.99 190.752 104.993 191.936 105.027 193.133C105.034 193.372 105.045 193.611 105.054 193.849C105.103 195.083 105.178 196.328 105.298 197.592C105.306 197.676 105.319 197.763 105.327 197.847C105.449 199.069 105.611 200.309 105.801 201.56C105.834 201.779 105.863 201.996 105.899 202.216C106.103 203.485 106.346 204.769 106.619 206.065C106.675 206.328 106.734 206.591 106.793 206.853C107.086 208.18 107.409 209.517 107.775 210.871C107.806 210.984 107.842 211.1 107.874 211.213C108.233 212.516 108.631 213.831 109.058 215.156C109.131 215.381 109.199 215.607 109.275 215.832C109.725 217.192 110.213 218.564 110.734 219.945C110.841 220.227 110.949 220.508 111.058 220.789C111.602 222.196 112.174 223.612 112.794 225.041C112.855 225.185 112.923 225.329 112.986 225.472C113.585 226.841 114.222 228.221 114.89 229.609C114.963 229.761 115.025 229.911 115.098 230.063C115.142 230.152 115.191 230.243 115.235 230.333C115.803 231.493 116.391 232.659 117.006 233.832C117.113 234.032 117.226 234.235 117.333 234.436C117.853 235.417 118.391 236.401 118.946 237.391C119.158 237.769 119.377 238.149 119.594 238.528C120.086 239.389 120.593 240.253 121.111 241.121C121.33 241.485 121.545 241.849 121.767 242.213C122.499 243.416 123.249 244.623 124.031 245.836C125.193 247.637 126.397 249.431 127.639 251.212C127.654 251.233 127.67 251.253 127.685 251.275C127.813 251.459 127.951 251.64 128.081 251.824C129.147 253.34 130.241 254.848 131.363 256.347C131.787 256.913 132.229 257.475 132.661 258.04C133.514 259.153 134.375 260.264 135.258 261.369C135.767 262.005 136.287 262.637 136.806 263.271C137.653 264.304 138.509 265.332 139.379 266.355C139.925 266.995 140.471 267.632 141.025 268.267C141.371 268.664 141.705 269.067 142.054 269.461C142.598 270.077 143.166 270.681 143.718 271.293C144.286 271.921 144.851 272.549 145.427 273.173C146.413 274.24 147.419 275.295 148.43 276.347C148.946 276.884 149.454 277.427 149.977 277.961C151.342 279.356 152.73 280.737 154.138 282.108C154.322 282.287 154.498 282.469 154.682 282.648C156.181 284.097 157.702 285.535 159.245 286.956C159.338 287.04 159.434 287.123 159.526 287.207C160.63 288.22 161.761 289.215 162.886 290.213C163.583 290.831 164.267 291.459 164.973 292.071C166.29 293.213 167.634 294.333 168.978 295.455C169.514 295.901 170.038 296.36 170.578 296.804C172.473 298.359 174.391 299.892 176.334 301.403C176.735 301.715 177.149 302.015 177.553 302.325C179.101 303.515 180.654 304.7 182.23 305.859C182.281 305.897 182.331 305.936 182.382 305.975C183.05 306.464 183.734 306.935 184.406 307.42C185.687 308.344 186.965 309.271 188.261 310.173C189.091 310.751 189.934 311.309 190.771 311.877C191.981 312.701 193.186 313.528 194.407 314.332C195.298 314.919 196.199 315.485 197.097 316.061C198.278 316.82 199.457 317.583 200.649 318.324C201.583 318.905 202.529 319.468 203.469 320.037C204.638 320.747 205.806 321.457 206.983 322.148C207.946 322.713 208.917 323.259 209.885 323.811C211.053 324.477 212.218 325.145 213.393 325.792C214.378 326.336 215.369 326.863 216.359 327.393C217.527 328.02 218.694 328.645 219.867 329.253C220.87 329.772 221.877 330.275 222.882 330.78C224.051 331.367 225.219 331.951 226.393 332.519C227.409 333.012 228.427 333.488 229.447 333.967C230.617 334.515 231.786 335.057 232.958 335.587C233.983 336.048 235.01 336.497 236.037 336.944C237.209 337.455 238.379 337.957 239.553 338.447C240.585 338.877 241.617 339.296 242.649 339.711C243.819 340.181 244.99 340.643 246.162 341.092C247.197 341.489 248.23 341.877 249.265 342.257C250.437 342.688 251.606 343.108 252.777 343.517C253.81 343.879 254.842 344.232 255.874 344.577C257.045 344.968 258.215 345.344 259.383 345.713C260.414 346.037 261.442 346.357 262.47 346.664C263.639 347.013 264.805 347.347 265.971 347.672C266.993 347.959 268.014 348.243 269.033 348.511C270.201 348.817 271.366 349.105 272.53 349.389C273.541 349.636 274.55 349.881 275.558 350.111C276.723 350.373 277.883 350.615 279.043 350.855C280.041 351.06 281.037 351.268 282.029 351.455C283.191 351.675 284.346 351.867 285.502 352.06C286.219 352.18 286.943 352.325 287.658 352.435C287.966 352.483 288.27 352.516 288.578 352.561C289.231 352.659 289.881 352.743 290.531 352.831C291.81 353.004 293.086 353.163 294.355 353.303C295.033 353.377 295.709 353.449 296.383 353.513C297.685 353.64 298.978 353.743 300.267 353.832C300.855 353.872 301.446 353.921 302.031 353.955C303.883 354.059 305.725 354.135 307.547 354.163C308.935 354.183 310.303 354.18 311.651 354.155C311.83 354.152 312.001 354.137 312.179 354.133C312.958 354.116 313.715 354.075 314.479 354.043C315.354 354.004 316.23 353.971 317.085 353.913C317.839 353.863 318.573 353.791 319.313 353.725C320.146 353.651 320.981 353.58 321.795 353.488C322.525 353.404 323.234 353.303 323.949 353.204C324.741 353.096 325.535 352.988 326.31 352.861C327.011 352.747 327.694 352.615 328.379 352.484C328.903 352.385 329.446 352.304 329.961 352.197C330.187 352.151 330.399 352.089 330.625 352.04C331.311 351.891 331.979 351.725 332.65 351.561C333.361 351.387 334.07 351.212 334.763 351.021C335.417 350.841 336.053 350.647 336.69 350.451C337.366 350.244 338.041 350.037 338.698 349.815C339.319 349.603 339.923 349.379 340.529 349.153C341.167 348.916 341.805 348.676 342.426 348.423C343.014 348.181 343.587 347.928 344.159 347.673C344.537 347.505 344.931 347.355 345.299 347.18C345.495 347.088 345.673 346.981 345.867 346.887C346.665 346.5 347.435 346.093 348.199 345.679C348.631 345.444 349.071 345.217 349.493 344.975C350.37 344.467 351.213 343.931 352.042 343.385C352.31 343.208 352.594 343.045 352.858 342.864C353.933 342.127 354.966 341.356 355.957 340.553C356.202 340.355 356.426 340.14 356.666 339.937C357.397 339.32 358.115 338.693 358.798 338.04C358.883 337.959 358.981 337.884 359.066 337.801C359.682 337.203 360.273 336.588 360.847 335.961C360.953 335.845 361.051 335.724 361.157 335.607C361.742 334.953 362.303 334.285 362.845 333.601Z" fill="url(#paint4_linear_48_1946)"/>
</g>
<defs>
<linearGradient id="paint0_linear_48_1946" x1="307.692" y1="163.954" x2="201.208" y2="286.332" gradientUnits="userSpaceOnUse">
<stop stop-color="#FDB5FF"/>
<stop offset="1" stop-color="#FC89FF"/>
</linearGradient>
<linearGradient id="paint1_linear_48_1946" x1="307.97" y1="152.784" x2="186.899" y2="314.807" gradientUnits="userSpaceOnUse">
<stop stop-color="white"/>
<stop offset="1" stop-color="white" stop-opacity="0"/>
</linearGradient>
<linearGradient id="paint2_linear_48_1946" x1="307.965" y1="152.787" x2="186.893" y2="314.81" gradientUnits="userSpaceOnUse">
<stop stop-color="#BD9CF5"/>
<stop offset="1" stop-color="#DD76F7"/>
</linearGradient>
<linearGradient id="paint3_linear_48_1946" x1="291.395" y1="165.757" x2="203.982" y2="302.439" gradientUnits="userSpaceOnUse">
<stop stop-color="#AE6EFE"/>
<stop offset="0.658048" stop-color="#785EF9"/>
<stop offset="0.976856" stop-color="#7155F7"/>
<stop offset="1" stop-color="#7155F7"/>
</linearGradient>
<linearGradient id="paint4_linear_48_1946" x1="105" y1="250.427" x2="376.846" y2="250.427" gradientUnits="userSpaceOnUse">
<stop stop-color="#FDB5FF"/>
<stop offset="0.113622" stop-color="#B553B3"/>
<stop offset="0.565528" stop-color="#B553B3"/>
<stop offset="0.875603" stop-color="#B553B3"/>
<stop offset="1" stop-color="#FDAAFF"/>
</linearGradient>
</defs>
</svg>
