<svg width="808" height="566" viewBox="0 0 808 566" fill="none" xmlns="http://www.w3.org/2000/svg">
<mask id="mask0_48_1949" style="mask-type:luminance" maskUnits="userSpaceOnUse" x="213" y="180" width="431" height="268">
<path d="M213.709 180.697H643.109V447.923H213.709V180.697Z" fill="white"/>
</mask>
<g mask="url(#mask0_48_1949)">
<path d="M641.296 269.807C641.532 268.931 641.748 268.059 641.939 267.194C641.94 267.19 641.94 267.186 641.939 267.183C641.961 267.082 641.975 266.983 641.998 266.883C642.158 266.135 642.305 265.389 642.432 264.649C642.481 264.357 642.515 264.069 642.56 263.778C642.643 263.23 642.728 262.682 642.793 262.139C642.793 262.091 642.808 262.042 642.813 261.995C642.847 261.701 642.861 261.413 642.889 261.121C642.936 260.635 642.987 260.15 643.018 259.67C643.04 259.318 643.047 258.969 643.061 258.618C643.08 258.157 643.1 257.695 643.104 257.239C643.105 257.155 643.117 257.07 643.117 256.986C643.119 256.711 643.1 256.442 643.095 256.169C643.082 255.727 643.082 255.285 643.059 254.847C643.042 254.489 643.011 254.134 642.983 253.778C642.95 253.347 642.916 252.918 642.868 252.493C642.855 252.377 642.851 252.259 642.838 252.143C642.81 251.911 642.764 251.683 642.731 251.453C642.671 251.017 642.607 250.581 642.531 250.149C642.47 249.802 642.4 249.459 642.33 249.117C642.243 248.693 642.15 248.269 642.047 247.849C642.01 247.693 641.982 247.531 641.942 247.375C641.874 247.111 641.792 246.851 641.718 246.589C641.662 246.389 641.607 246.187 641.547 245.989C641.35 245.337 641.139 244.689 640.904 244.049C640.736 243.594 640.56 243.145 640.376 242.699C640.345 242.626 640.315 242.554 640.284 242.481L627.381 212.025C627.6 212.541 627.807 213.063 628.001 213.593C628.236 214.234 628.447 214.882 628.644 215.534C628.704 215.733 628.758 215.933 628.815 216.131C628.932 216.549 629.042 216.97 629.144 217.394C629.247 217.814 629.339 218.237 629.427 218.661C629.498 219.003 629.567 219.346 629.628 219.691C629.704 220.123 629.768 220.559 629.828 220.995C629.876 221.342 629.927 221.689 629.965 222.038C630.013 222.463 630.047 222.891 630.08 223.321C630.107 223.677 630.139 224.033 630.156 224.391C630.178 224.827 630.184 225.269 630.192 225.709C630.192 226.067 630.21 226.425 630.207 226.785C630.207 227.239 630.183 227.697 630.164 228.154C630.15 228.509 630.143 228.859 630.119 229.215C630.088 229.697 630.039 230.181 629.992 230.666C629.96 231.005 629.936 231.341 629.896 231.682C629.832 232.223 629.747 232.77 629.663 233.318C629.619 233.61 629.584 233.901 629.535 234.194C629.408 234.933 629.26 235.677 629.1 236.423C629.079 236.529 629.063 236.633 629.039 236.738C628.848 237.603 628.633 238.474 628.397 239.35C628.321 239.63 628.231 239.914 628.151 240.195C627.98 240.794 627.809 241.394 627.617 241.998C627.517 242.315 627.404 242.635 627.298 242.954C627.099 243.55 626.898 244.146 626.679 244.745C626.547 245.109 626.403 245.475 626.263 245.841C626.05 246.401 625.829 246.962 625.599 247.526C625.447 247.898 625.288 248.27 625.128 248.642C624.87 249.249 624.6 249.857 624.321 250.466C624.153 250.834 623.986 251.201 623.811 251.57C623.508 252.207 623.192 252.847 622.871 253.489C622.703 253.822 622.54 254.155 622.367 254.49C621.84 255.506 621.294 256.527 620.718 257.553C620.682 257.617 620.643 257.679 620.607 257.742C620.062 258.707 619.491 259.677 618.902 260.649C618.724 260.942 618.537 261.237 618.355 261.531C617.803 262.425 617.232 263.321 616.643 264.221C616.444 264.525 616.248 264.829 616.044 265.134C615.286 266.271 614.504 267.413 613.687 268.559C613.096 269.39 612.488 270.223 611.868 271.058C611.704 271.278 611.534 271.499 611.367 271.719C610.892 272.351 610.409 272.985 609.917 273.618C609.688 273.914 609.453 274.21 609.221 274.506C608.767 275.082 608.307 275.659 607.839 276.237C607.599 276.533 607.36 276.829 607.116 277.126C606.72 277.61 606.312 278.094 605.907 278.578C605.506 279.057 605.105 279.534 604.696 280.014C604.301 280.474 603.9 280.934 603.498 281.395C603.079 281.877 602.659 282.357 602.229 282.839C601.82 283.299 601.403 283.761 600.985 284.221C600.547 284.705 600.108 285.187 599.661 285.671C599.233 286.135 598.796 286.601 598.359 287.066C597.908 287.545 597.458 288.023 596.999 288.503C596.679 288.838 596.351 289.173 596.027 289.509C594.945 290.625 593.843 291.741 592.716 292.859C592.517 293.055 592.324 293.253 592.124 293.45C590.844 294.711 589.53 295.974 588.191 297.237C587.874 297.538 587.551 297.838 587.231 298.138C586 299.287 584.749 300.438 583.472 301.589C583.301 301.742 583.136 301.897 582.964 302.051C581.551 303.318 580.104 304.583 578.636 305.85C578.294 306.145 577.947 306.441 577.602 306.737C576.011 308.095 574.399 309.454 572.747 310.81C572.656 310.885 572.56 310.961 572.47 311.035C570.872 312.343 569.242 313.649 567.588 314.953C567.248 315.221 566.91 315.49 566.567 315.758C564.879 317.081 563.161 318.401 561.416 319.718C561.079 319.973 560.736 320.227 560.396 320.482C558.716 321.741 557.015 322.997 555.284 324.25C555.108 324.377 554.936 324.505 554.759 324.633C552.92 325.959 551.044 327.282 549.151 328.601C548.743 328.885 548.335 329.167 547.924 329.45C546.031 330.759 544.115 332.063 542.168 333.362C541.901 333.539 541.629 333.717 541.361 333.894C539.545 335.101 537.704 336.302 535.843 337.498C535.5 337.718 535.16 337.941 534.815 338.161C532.818 339.437 530.791 340.707 528.744 341.971C528.124 342.354 527.503 342.735 526.879 343.117C526.12 343.581 525.361 344.043 524.597 344.503C523.872 344.942 523.141 345.378 522.411 345.815C521.64 346.274 520.868 346.733 520.092 347.19C519.355 347.625 518.612 348.058 517.869 348.49C517.089 348.945 516.308 349.398 515.521 349.85C514.771 350.281 514.016 350.711 513.26 351.141C512.467 351.591 511.671 352.041 510.871 352.49C510.228 352.85 509.583 353.21 508.935 353.569C507.284 354.486 505.621 355.398 503.944 356.306C503.608 356.487 503.276 356.671 502.939 356.853C500.963 357.917 498.968 358.971 496.96 360.019C496.348 360.339 495.731 360.657 495.115 360.975C493.952 361.577 492.784 362.177 491.61 362.774C490.923 363.122 490.235 363.47 489.546 363.817C488.374 364.406 487.195 364.991 486.012 365.575C485.322 365.917 484.633 366.258 483.939 366.598C482.996 367.058 482.048 367.515 481.099 367.971C480.323 368.346 479.548 368.721 478.767 369.093C477.8 369.553 476.826 370.009 475.852 370.466C475.152 370.794 474.453 371.123 473.749 371.45C470.509 372.953 467.234 374.434 463.927 375.894C463.675 376.005 463.424 376.118 463.172 376.229C459.896 377.669 456.586 379.085 453.247 380.479C452.852 380.645 452.46 380.813 452.064 380.977C448.859 382.307 445.663 383.595 442.473 384.853C442.248 384.941 442.024 385.033 441.8 385.121C440.8 385.513 439.802 385.895 438.803 386.282C438.036 386.578 437.27 386.878 436.504 387.17C435.471 387.563 434.44 387.947 433.409 388.333C432.68 388.607 431.948 388.886 431.219 389.155C429.974 389.617 428.729 390.066 427.487 390.515C426.971 390.702 426.455 390.894 425.94 391.078C424.183 391.709 422.428 392.327 420.678 392.935C420.431 393.022 420.184 393.103 419.937 393.189C418.42 393.713 416.904 394.233 415.392 394.739C414.778 394.946 414.166 395.145 413.552 395.349C412.411 395.727 411.268 396.107 410.131 396.477C409.455 396.695 408.784 396.906 408.11 397.122C407.026 397.469 405.942 397.817 404.86 398.154C404.126 398.385 403.392 398.607 402.659 398.833C401.643 399.146 400.625 399.461 399.612 399.766C398.889 399.983 398.17 400.194 397.45 400.409C396.398 400.721 395.346 401.031 394.298 401.335C393.552 401.55 392.811 401.761 392.068 401.973C391.058 402.259 390.047 402.546 389.04 402.825C388.302 403.03 387.564 403.231 386.827 403.433C385.743 403.729 384.661 404.019 383.584 404.306C382.864 404.497 382.144 404.686 381.428 404.874C380.332 405.159 379.24 405.437 378.15 405.713C377.471 405.885 376.792 406.058 376.116 406.226C374.747 406.565 373.384 406.894 372.024 407.218C371.579 407.325 371.132 407.435 370.688 407.539C368.892 407.962 367.105 408.371 365.328 408.766C364.96 408.849 364.596 408.925 364.229 409.006C362.728 409.335 361.235 409.655 359.747 409.966C359.138 410.094 358.531 410.217 357.923 410.341C356.64 410.603 355.363 410.857 354.09 411.105C353.512 411.217 352.935 411.33 352.36 411.439C350.39 411.813 348.43 412.174 346.484 412.514C346.272 412.551 346.064 412.583 345.852 412.621C344.099 412.923 342.356 413.21 340.624 413.485C340.127 413.565 339.631 413.642 339.136 413.718C336.948 414.055 334.775 414.375 332.624 414.669C332.368 414.703 332.115 414.734 331.859 414.767C329.839 415.038 327.836 415.286 325.85 415.515C325.454 415.562 325.056 415.611 324.661 415.655C323.776 415.754 322.898 415.845 322.019 415.935C321.4 415.999 320.779 416.067 320.164 416.127C319.214 416.219 318.272 416.302 317.33 416.386C316.8 416.433 316.264 416.485 315.737 416.529C314.567 416.625 313.407 416.711 312.251 416.793C311.957 416.814 311.66 416.839 311.367 416.859C309.924 416.958 308.492 417.043 307.072 417.118C306.652 417.139 306.24 417.154 305.823 417.174C304.831 417.222 303.839 417.269 302.858 417.305C302.32 417.325 301.791 417.335 301.257 417.351C300.409 417.378 299.56 417.405 298.722 417.421C298.146 417.433 297.576 417.437 297.003 417.443C296.216 417.454 295.427 417.465 294.647 417.467C294.064 417.469 293.488 417.463 292.91 417.461C292.155 417.458 291.401 417.454 290.655 417.443C290.069 417.434 289.49 417.419 288.91 417.406C288.182 417.39 287.454 417.373 286.735 417.349C286.154 417.329 285.578 417.305 285.003 417.281C284.298 417.251 283.593 417.219 282.897 417.183C282.323 417.153 281.754 417.118 281.184 417.083C280.499 417.041 279.815 416.997 279.138 416.947C278.572 416.906 278.012 416.862 277.452 416.815C276.784 416.761 276.119 416.702 275.459 416.641C274.908 416.589 274.36 416.534 273.815 416.478C273.159 416.41 272.508 416.337 271.86 416.262C271.324 416.199 270.789 416.137 270.259 416.069C269.619 415.987 268.984 415.901 268.354 415.813C267.832 415.739 267.31 415.667 266.795 415.59C266.164 415.494 265.54 415.393 264.919 415.29C264.419 415.207 263.919 415.127 263.425 415.041C262.797 414.93 262.18 414.811 261.562 414.693C261.09 414.603 260.615 414.515 260.148 414.421C259.518 414.291 258.899 414.155 258.278 414.018C257.84 413.922 257.398 413.83 256.964 413.73C256.318 413.579 255.683 413.419 255.047 413.259C254.658 413.162 254.26 413.069 253.875 412.967C253.146 412.777 252.434 412.573 251.722 412.37C251.444 412.29 251.16 412.217 250.886 412.135C249.907 411.846 248.943 411.545 247.998 411.233C247.8 411.167 247.612 411.095 247.416 411.03C246.674 410.778 245.935 410.523 245.215 410.257C244.882 410.134 244.56 410.003 244.232 409.877C243.662 409.658 243.09 409.439 242.534 409.211C242.174 409.063 241.826 408.907 241.471 408.755C240.963 408.537 240.454 408.321 239.958 408.094C239.595 407.929 239.244 407.757 238.888 407.586C238.418 407.362 237.948 407.138 237.49 406.906C237.132 406.725 236.786 406.538 236.436 406.353C235.998 406.119 235.559 405.887 235.131 405.646C234.786 405.453 234.448 405.253 234.11 405.054C233.696 404.81 233.284 404.566 232.883 404.315C232.551 404.109 232.226 403.897 231.9 403.685C231.511 403.431 231.126 403.175 230.748 402.914C230.432 402.694 230.12 402.473 229.812 402.249C229.444 401.982 229.083 401.711 228.727 401.438C228.428 401.209 228.134 400.977 227.843 400.742C227.496 400.462 227.158 400.178 226.823 399.891C226.543 399.651 226.265 399.41 225.993 399.165C225.668 398.871 225.351 398.571 225.036 398.27C224.777 398.021 224.517 397.771 224.265 397.517C223.959 397.207 223.664 396.893 223.371 396.575C223.132 396.318 222.891 396.062 222.661 395.799C222.373 395.471 222.099 395.138 221.824 394.803C221.608 394.539 221.39 394.278 221.18 394.01C220.91 393.661 220.655 393.303 220.397 392.946C220.208 392.682 220.011 392.421 219.828 392.151C219.571 391.771 219.331 391.382 219.088 390.995C218.927 390.737 218.758 390.482 218.603 390.219C218.347 389.783 218.11 389.337 217.872 388.89C217.754 388.666 217.624 388.446 217.51 388.219C217.167 387.539 216.844 386.85 216.547 386.147L229.45 416.602C229.747 417.306 230.069 417.995 230.411 418.675C230.527 418.902 230.656 419.122 230.775 419.346C231.014 419.793 231.25 420.239 231.506 420.675C231.66 420.938 231.83 421.193 231.991 421.451C232.234 421.838 232.473 422.227 232.731 422.607C232.913 422.877 233.109 423.138 233.3 423.402C233.557 423.759 233.813 424.117 234.084 424.466C234.291 424.734 234.511 424.995 234.727 425.258C235.002 425.593 235.276 425.929 235.564 426.255C235.793 426.517 236.033 426.773 236.272 427.03C236.567 427.347 236.863 427.663 237.168 427.974C237.42 428.227 237.679 428.475 237.937 428.725C238.252 429.027 238.571 429.327 238.897 429.622C239.168 429.866 239.445 430.106 239.724 430.345C240.059 430.633 240.399 430.918 240.747 431.199C241.036 431.433 241.331 431.665 241.63 431.894C241.986 432.169 242.348 432.438 242.715 432.705C243.023 432.927 243.334 433.15 243.65 433.369C244.03 433.631 244.416 433.889 244.807 434.143C245.129 434.354 245.452 434.565 245.783 434.77C246.187 435.022 246.599 435.267 247.015 435.511C247.352 435.71 247.688 435.909 248.034 436.102C248.462 436.342 248.9 436.575 249.34 436.809C249.69 436.994 250.036 437.181 250.392 437.362C250.85 437.594 251.32 437.818 251.791 438.042C252.147 438.211 252.498 438.385 252.86 438.55C253.356 438.777 253.868 438.994 254.376 439.213C254.729 439.363 255.078 439.519 255.436 439.667C255.994 439.895 256.566 440.114 257.136 440.334C257.464 440.459 257.784 440.59 258.116 440.714C258.828 440.977 259.558 441.227 260.291 441.475C260.496 441.546 260.695 441.621 260.903 441.689C261.848 442.002 262.81 442.302 263.79 442.591C264.063 442.673 264.347 442.746 264.623 442.826C265.335 443.029 266.048 443.233 266.778 443.423C267.166 443.526 267.564 443.618 267.956 443.717C268.588 443.875 269.219 444.035 269.864 444.185C270.303 444.286 270.751 444.381 271.195 444.478C271.808 444.613 272.423 444.749 273.048 444.875C273.519 444.971 273.999 445.059 274.475 445.151C275.09 445.269 275.703 445.386 276.326 445.495C276.82 445.583 277.324 445.663 277.824 445.746C278.446 445.849 279.068 445.95 279.698 446.046C280.214 446.123 280.735 446.195 281.255 446.269C281.887 446.357 282.52 446.443 283.16 446.525C283.692 446.593 284.23 446.655 284.768 446.718C285.412 446.793 286.06 446.865 286.712 446.934C287.26 446.99 287.811 447.045 288.363 447.097C289.023 447.158 289.686 447.217 290.354 447.271C290.915 447.318 291.479 447.362 292.046 447.403C292.72 447.453 293.399 447.497 294.08 447.539C294.652 447.574 295.224 447.609 295.802 447.639C296.496 447.675 297.198 447.707 297.902 447.735C298.48 447.761 299.059 447.785 299.643 447.805C300.358 447.829 301.079 447.846 301.802 447.862C302.387 447.875 302.97 447.89 303.56 447.899C304.304 447.91 305.056 447.914 305.81 447.917C306.39 447.919 306.967 447.925 307.551 447.923C308.33 447.921 309.117 447.91 309.904 447.899C310.477 447.893 311.047 447.889 311.624 447.877C312.458 447.861 313.3 447.834 314.142 447.809C314.683 447.791 315.22 447.781 315.765 447.761C316.737 447.725 317.722 447.678 318.706 447.631C319.1 447.613 319.488 447.599 319.884 447.579C319.914 447.578 319.946 447.575 319.975 447.574C321.395 447.499 322.827 447.414 324.27 447.315C324.563 447.295 324.86 447.27 325.153 447.249C326.309 447.166 327.469 447.081 328.64 446.985C329.163 446.941 329.692 446.889 330.216 446.843C331.167 446.759 332.115 446.675 333.074 446.582C333.676 446.523 334.285 446.457 334.891 446.394C335.781 446.302 336.672 446.21 337.571 446.11C337.728 446.093 337.883 446.078 338.04 446.061C338.272 446.034 338.511 445.999 338.743 445.973C340.733 445.743 342.74 445.494 344.764 445.223C345.02 445.19 345.272 445.159 345.527 445.123C347.68 444.831 349.855 444.511 352.044 444.173C352.278 444.137 352.504 444.109 352.736 444.071C352.996 444.031 353.26 443.983 353.52 443.942C355.254 443.667 356.995 443.381 358.751 443.078C358.964 443.041 359.175 443.006 359.389 442.97C361.333 442.63 363.295 442.269 365.265 441.894C365.475 441.855 365.68 441.821 365.888 441.781C366.252 441.711 366.622 441.633 366.986 441.562C368.262 441.314 369.543 441.058 370.83 440.795C371.435 440.673 372.04 440.55 372.648 440.422C374.134 440.113 375.627 439.791 377.125 439.462C377.425 439.397 377.723 439.337 378.023 439.27C378.092 439.255 378.163 439.238 378.232 439.222C380.012 438.826 381.8 438.417 383.596 437.994C384.032 437.891 384.472 437.783 384.909 437.679C386.275 437.354 387.643 437.023 389.018 436.682C389.232 436.629 389.445 436.579 389.66 436.526C390.123 436.41 390.59 436.286 391.052 436.169C392.143 435.893 393.235 435.614 394.331 435.329C395.047 435.142 395.766 434.953 396.483 434.762C397.567 434.475 398.652 434.183 399.739 433.886C400.154 433.773 400.564 433.667 400.978 433.553C401.296 433.465 401.618 433.371 401.936 433.283C402.943 433.003 403.952 432.718 404.963 432.43C405.712 432.217 406.46 432.005 407.211 431.787C408.244 431.489 409.282 431.181 410.319 430.874C410.866 430.711 411.41 430.557 411.958 430.393C412.147 430.335 412.336 430.275 412.526 430.218C413.532 429.915 414.542 429.603 415.551 429.293C416.287 429.066 417.023 428.842 417.762 428.611C418.831 428.277 419.905 427.931 420.98 427.589C421.577 427.397 422.173 427.213 422.772 427.018C422.861 426.989 422.953 426.958 423.043 426.929C424.155 426.569 425.27 426.197 426.386 425.827C427.023 425.615 427.66 425.409 428.299 425.194C429.804 424.689 431.315 424.171 432.827 423.649C433.069 423.565 433.312 423.485 433.556 423.401C433.569 423.398 433.572 423.394 433.58 423.391C435.33 422.785 437.083 422.166 438.84 421.535C439.363 421.349 439.888 421.153 440.412 420.963C441.65 420.515 442.887 420.069 444.128 419.609C444.172 419.593 444.215 419.578 444.257 419.562C444.909 419.321 445.566 419.069 446.218 418.825C447.283 418.426 448.347 418.03 449.414 417.623C450.162 417.338 450.914 417.043 451.663 416.754C452.676 416.363 453.688 415.974 454.703 415.577C454.787 415.543 454.872 415.511 454.956 415.478C455.096 415.423 455.236 415.363 455.376 415.309C458.565 414.051 461.761 412.762 464.967 411.433C465.203 411.335 465.439 411.237 465.676 411.138C465.836 411.071 465.993 411.001 466.153 410.933C469.492 409.539 472.803 408.123 476.079 406.683C476.162 406.647 476.247 406.613 476.33 406.575C476.495 406.502 476.656 406.426 476.823 406.353C480.131 404.893 483.408 403.411 486.65 401.907C486.759 401.857 486.872 401.809 486.982 401.757C487.579 401.479 488.169 401.197 488.765 400.917C489.735 400.462 490.705 400.007 491.668 399.549C492.453 399.175 493.232 398.799 494.012 398.423C494.955 397.969 495.897 397.514 496.835 397.057C497.096 396.929 497.362 396.803 497.622 396.675C498.058 396.462 498.487 396.243 498.922 396.029C500.102 395.446 501.279 394.861 502.448 394.273C503.138 393.926 503.826 393.578 504.511 393.23C505.684 392.634 506.852 392.034 508.015 391.433C508.447 391.209 508.886 390.989 509.316 390.765C509.502 390.669 509.682 390.57 509.866 390.474C511.875 389.425 513.87 388.37 515.846 387.307C516.176 387.129 516.503 386.949 516.832 386.77C518.516 385.858 520.187 384.942 521.844 384.021C522.128 383.863 522.419 383.709 522.703 383.551C523.06 383.351 523.411 383.149 523.768 382.949C524.571 382.498 525.369 382.047 526.167 381.594C526.92 381.166 527.672 380.738 528.419 380.309C529.208 379.854 529.992 379.399 530.775 378.945C531.519 378.511 532.262 378.078 532.999 377.643C533.772 377.189 534.539 376.733 535.305 376.275C536.04 375.837 536.774 375.398 537.503 374.958C538.264 374.498 539.021 374.038 539.777 373.575C540.211 373.31 540.651 373.047 541.083 372.782C541.275 372.663 541.459 372.543 541.651 372.425C543.696 371.162 545.722 369.893 547.718 368.617C548.062 368.397 548.401 368.175 548.744 367.955C550.607 366.758 552.448 365.555 554.267 364.349C554.534 364.171 554.805 363.995 555.071 363.818C557.016 362.521 558.931 361.217 560.823 359.91C561.236 359.625 561.647 359.339 562.057 359.053C563.949 357.737 565.821 356.415 567.659 355.09C567.839 354.961 568.015 354.83 568.195 354.699C569.923 353.449 571.62 352.195 573.299 350.938C573.639 350.683 573.981 350.429 574.319 350.174C576.064 348.857 577.78 347.537 579.47 346.214C579.814 345.945 580.152 345.675 580.493 345.406C582.143 344.106 583.771 342.803 585.363 341.498C585.459 341.419 585.557 341.342 585.652 341.263C587.303 339.91 588.912 338.553 590.5 337.195C590.685 337.038 590.882 336.879 591.066 336.721C591.227 336.582 591.38 336.442 591.541 336.303C593.008 335.038 594.455 333.773 595.867 332.506C596.039 332.353 596.204 332.199 596.375 332.046C597.651 330.895 598.9 329.746 600.131 328.597C600.452 328.294 600.776 327.993 601.096 327.691C602.434 326.429 603.748 325.166 605.029 323.903C605.228 323.709 605.419 323.514 605.615 323.318C606.743 322.201 607.846 321.082 608.928 319.966C609.1 319.787 609.284 319.61 609.455 319.431C609.607 319.274 609.752 319.117 609.903 318.958C610.359 318.482 610.807 318.005 611.256 317.527C611.696 317.059 612.137 316.59 612.569 316.122C613.011 315.645 613.443 315.167 613.876 314.69C614.299 314.222 614.723 313.755 615.138 313.29C615.562 312.814 615.975 312.338 616.389 311.863C616.796 311.397 617.204 310.93 617.603 310.465C618.01 309.99 618.406 309.517 618.803 309.042C619.074 308.718 619.355 308.394 619.622 308.071C619.758 307.907 619.887 307.743 620.021 307.581C620.263 307.285 620.502 306.989 620.742 306.694C621.208 306.117 621.668 305.541 622.122 304.965C622.356 304.667 622.591 304.369 622.823 304.071C623.312 303.441 623.791 302.811 624.264 302.183C624.432 301.959 624.605 301.735 624.772 301.513C625.371 300.707 625.959 299.905 626.529 299.103C626.551 299.074 626.569 299.045 626.591 299.015C627.407 297.869 628.188 296.727 628.947 295.589C629.151 295.285 629.347 294.981 629.547 294.677C630.135 293.777 630.705 292.881 631.259 291.986C631.376 291.797 631.507 291.605 631.622 291.415C631.686 291.311 631.742 291.209 631.804 291.105C632.391 290.137 632.959 289.173 633.501 288.211C633.54 288.143 633.583 288.075 633.62 288.007C634.197 286.982 634.743 285.962 635.268 284.946C635.315 284.857 635.368 284.766 635.414 284.677C635.542 284.429 635.652 284.186 635.775 283.939C636.096 283.301 636.411 282.665 636.711 282.03C636.888 281.658 637.058 281.289 637.227 280.918C637.504 280.31 637.772 279.703 638.031 279.099C638.122 278.887 638.224 278.673 638.313 278.462C638.38 278.301 638.436 278.143 638.501 277.982C638.733 277.418 638.952 276.855 639.167 276.294C639.307 275.93 639.448 275.565 639.58 275.203C639.799 274.603 640 274.007 640.199 273.413C640.284 273.155 640.383 272.897 640.465 272.641C640.485 272.578 640.501 272.515 640.521 272.451C640.712 271.847 640.884 271.247 641.055 270.647C641.135 270.367 641.224 270.086 641.299 269.807" fill="url(#paint0_linear_48_1949)"/>
<path d="M391.86 217.191C505.654 169.973 611.374 168.365 627.998 213.593C644.621 258.818 565.856 333.759 452.061 380.977C338.266 428.195 232.546 429.805 215.924 384.579C199.3 339.351 278.065 264.409 391.86 217.191Z" fill="url(#paint1_linear_48_1949)"/>
<mask id="mask1_48_1949" style="mask-type:luminance" maskUnits="userSpaceOnUse" x="213" y="180" width="418" height="238">
<path d="M451.601 379.871C380.41 409.411 310.078 422.109 263.465 413.837C238.612 409.426 222.562 399.166 217.049 384.166C200.669 339.603 279.296 265.195 392.32 218.298C463.509 188.758 533.841 176.061 580.453 184.333C605.306 188.742 621.36 199.003 626.873 214.006C643.252 258.566 564.625 332.973 451.601 379.871ZM627.998 213.593C611.374 168.365 505.654 169.973 391.86 217.191C278.065 264.409 199.3 339.351 215.924 384.579C232.546 429.805 338.266 428.195 452.061 380.977C565.856 333.759 644.621 258.818 627.998 213.593Z" fill="white"/>
</mask>
<g mask="url(#mask1_48_1949)">
<mask id="mask2_48_1949" style="mask-type:luminance" maskUnits="userSpaceOnUse" x="-45251" y="-42361" width="87381" height="87381">
<path d="M-45250.7 -42360.4H42129.3V45019.6H-45250.7V-42360.4Z" fill="url(#paint2_linear_48_1949)"/>
</mask>
<g mask="url(#mask2_48_1949)">
<path d="M451.601 379.872C380.41 409.412 310.078 422.109 263.465 413.837C238.612 409.427 222.562 399.167 217.049 384.167C200.669 339.604 279.296 265.196 392.32 218.299C463.509 188.759 533.841 176.061 580.453 184.333C605.306 188.743 621.36 199.004 626.873 214.007C643.252 258.567 564.625 332.973 451.601 379.872ZM627.998 213.593C611.374 168.365 505.654 169.973 391.86 217.192C278.065 264.409 199.3 339.352 215.924 384.58C232.546 429.805 338.266 428.196 452.061 380.977C565.856 333.76 644.621 258.819 627.998 213.593Z" fill="url(#paint3_linear_48_1949)"/>
</g>
</g>
<path d="M401.769 244.137C325.415 275.819 272.567 326.099 283.72 356.447C294.873 386.79 365.805 385.713 442.16 354.03C518.504 322.351 571.351 272.069 560.199 241.725C549.044 211.377 478.113 212.459 401.769 244.137ZM431.244 324.331C396.153 338.891 363.557 339.389 358.432 325.446C353.305 311.498 377.592 288.393 412.684 273.833C447.764 259.275 480.36 258.778 485.487 272.726C490.612 286.669 466.325 309.774 431.244 324.331Z" fill="url(#paint4_linear_48_1949)"/>
<path d="M412.685 273.833C377.593 288.393 353.306 311.498 358.433 325.446C363.558 339.389 396.154 338.891 431.245 324.331C466.326 309.774 490.613 286.669 485.488 272.726C480.361 258.778 447.765 259.275 412.685 273.833Z" fill="url(#paint5_linear_48_1949)"/>
</g>
<path d="M180.721 111.41C166.77 120.287 157.717 144.27 160.513 164.979C163.306 185.679 176.889 195.256 190.839 186.378C204.79 177.5 213.835 153.522 211.042 132.823C208.955 117.359 200.854 108.099 191.077 108.098C187.761 108.096 184.254 109.162 180.721 111.41Z" fill="url(#paint6_linear_48_1949)"/>
<path d="M195.592 108.793C195.745 108.841 195.896 108.901 196.048 108.953C196.369 109.066 196.691 109.184 197.004 109.318C197.18 109.392 197.352 109.474 197.524 109.556C197.812 109.692 198.099 109.834 198.383 109.988C198.556 110.082 198.731 110.181 198.903 110.284C199.183 110.449 199.459 110.626 199.732 110.81C199.893 110.92 200.056 111.025 200.215 111.139C200.511 111.353 200.803 111.585 201.091 111.821C201.216 111.924 201.345 112.02 201.469 112.126C201.876 112.477 202.275 112.848 202.664 113.242C202.712 113.29 202.756 113.343 202.803 113.393C203.143 113.745 203.475 114.112 203.797 114.496C203.923 114.644 204.041 114.801 204.163 114.953C204.404 115.254 204.641 115.56 204.873 115.878C205.007 116.062 205.136 116.253 205.265 116.442C205.477 116.753 205.687 117.072 205.889 117.398C206.016 117.602 206.141 117.806 206.264 118.014C206.465 118.358 206.66 118.711 206.852 119.07C206.961 119.277 207.073 119.481 207.18 119.693C207.391 120.11 207.591 120.542 207.788 120.978C207.864 121.146 207.944 121.309 208.019 121.479C208.284 122.094 208.536 122.727 208.775 123.379C208.82 123.506 208.86 123.641 208.907 123.77C209.093 124.302 209.275 124.842 209.444 125.398C209.517 125.641 209.584 125.89 209.653 126.136C209.789 126.612 209.921 127.09 210.043 127.581C210.096 127.795 210.148 128.014 210.199 128.233C210.325 128.78 210.444 129.338 210.553 129.903C210.588 130.083 210.627 130.262 210.66 130.444C210.803 131.222 210.932 132.013 211.041 132.823C211.097 133.243 211.141 133.666 211.188 134.087C211.261 134.749 211.324 135.412 211.375 136.078C211.388 136.242 211.404 136.406 211.415 136.57C211.464 137.329 211.501 138.089 211.523 138.854C211.523 139.048 211.523 139.244 211.536 139.44C211.549 139.974 211.551 140.51 211.549 141.048C211.549 141.321 211.536 141.594 211.533 141.868C211.52 142.316 211.511 142.766 211.492 143.214C211.479 143.505 211.465 143.794 211.449 144.085C211.424 144.51 211.396 144.937 211.364 145.362C211.34 145.657 211.317 145.949 211.292 146.243C211.255 146.665 211.209 147.086 211.164 147.507C211.133 147.793 211.103 148.078 211.068 148.362C211.012 148.817 210.949 149.27 210.884 149.726C210.848 149.977 210.815 150.228 210.776 150.478C210.684 151.076 210.583 151.672 210.475 152.268C210.453 152.377 210.437 152.488 210.416 152.596C210.284 153.309 210.139 154.02 209.983 154.725C209.94 154.917 209.892 155.107 209.849 155.299C209.724 155.841 209.596 156.381 209.459 156.918C209.397 157.161 209.332 157.402 209.268 157.644C209.125 158.178 208.977 158.712 208.821 159.241C208.755 159.469 208.688 159.697 208.62 159.924C208.381 160.708 208.133 161.486 207.869 162.254C207.849 162.309 207.828 162.363 207.809 162.421C207.523 163.246 207.216 164.058 206.9 164.864C206.833 165.032 206.769 165.2 206.701 165.368C206.289 166.39 205.852 167.394 205.393 168.378C205.321 168.533 205.249 168.689 205.176 168.844C204.8 169.634 204.411 170.413 204.005 171.173C203.941 171.294 203.873 171.411 203.808 171.531C203.435 172.221 203.051 172.896 202.655 173.556C202.568 173.702 202.484 173.85 202.395 173.994C202.169 174.364 201.937 174.724 201.704 175.082C201.589 175.262 201.477 175.444 201.36 175.62C200.655 176.68 199.92 177.694 199.157 178.66C199.033 178.817 198.907 178.966 198.78 179.121C198.52 179.442 198.257 179.762 197.989 180.072C197.885 180.194 197.777 180.31 197.671 180.43C197.217 180.941 196.757 181.437 196.288 181.913C196.189 182.013 196.093 182.114 195.995 182.213C195.464 182.739 194.921 183.242 194.371 183.724C194.175 183.894 193.977 184.06 193.779 184.224C193.597 184.374 193.417 184.526 193.233 184.672C193.007 184.85 192.777 185.021 192.548 185.193C192.365 185.329 192.185 185.466 192 185.597C191.62 185.869 191.236 186.132 190.847 186.378C190.391 186.669 189.937 186.923 189.483 187.174C189.18 187.341 188.877 187.495 188.576 187.646C188.285 187.79 187.996 187.932 187.708 188.058C187.451 188.173 187.196 188.277 186.94 188.378C186.628 188.502 186.316 188.62 186.007 188.728C185.78 188.802 185.556 188.876 185.332 188.944C185.003 189.042 184.675 189.129 184.347 189.208C184.145 189.256 183.944 189.308 183.741 189.349C183.379 189.422 183.016 189.478 182.656 189.528C182.496 189.549 182.336 189.58 182.18 189.596C181.665 189.652 181.153 189.685 180.647 189.69C180.573 189.69 180.503 189.684 180.429 189.684C179.996 189.681 179.564 189.664 179.135 189.626C178.957 189.61 178.783 189.581 178.605 189.559C178.207 189.51 177.808 189.46 177.416 189.378L438.059 243.416C438.224 243.45 438.391 243.482 438.556 243.51C438.784 243.55 439.016 243.568 439.247 243.597C439.424 243.618 439.6 243.648 439.78 243.662C439.832 243.668 439.884 243.678 439.939 243.684C440.312 243.712 440.692 243.718 441.072 243.721C441.145 243.721 441.217 243.728 441.291 243.728C441.304 243.726 441.309 243.728 441.319 243.728C441.776 243.724 442.239 243.697 442.704 243.65C442.744 243.646 442.784 243.638 442.823 243.633C442.98 243.615 443.137 243.587 443.295 243.566C443.571 243.527 443.844 243.498 444.121 243.448C444.209 243.43 444.297 243.402 444.385 243.386C444.585 243.345 444.788 243.293 444.989 243.245C445.185 243.198 445.379 243.164 445.576 243.11C445.708 243.073 445.844 243.019 445.977 242.979C446.2 242.913 446.424 242.841 446.648 242.764C446.796 242.714 446.944 242.676 447.092 242.62C447.256 242.561 447.42 242.481 447.584 242.416C447.839 242.314 448.093 242.21 448.349 242.097C448.472 242.042 448.596 242 448.72 241.942C448.887 241.864 449.053 241.765 449.219 241.682C449.521 241.532 449.823 241.378 450.127 241.212C450.248 241.144 450.369 241.09 450.492 241.021C450.824 240.83 451.157 240.628 451.489 240.416C451.828 240.201 452.163 239.978 452.493 239.745C452.544 239.71 452.593 239.67 452.644 239.634C452.828 239.504 453.008 239.366 453.191 239.23C453.42 239.058 453.651 238.888 453.877 238.708C454.06 238.562 454.241 238.411 454.423 238.261C454.571 238.138 454.723 238.021 454.869 237.894C454.919 237.853 454.964 237.803 455.012 237.761C455.564 237.279 456.107 236.778 456.637 236.25C456.737 236.153 456.833 236.049 456.932 235.949C457.401 235.473 457.861 234.977 458.315 234.466C458.38 234.393 458.449 234.326 458.513 234.253C458.553 234.208 458.592 234.157 458.633 234.11C458.9 233.801 459.16 233.482 459.42 233.162C459.547 233.006 459.676 232.854 459.801 232.695C460.183 232.214 460.557 231.721 460.925 231.213C460.927 231.21 460.925 231.208 460.925 231.206C461.292 230.701 461.649 230.182 462 229.656C462.115 229.481 462.227 229.302 462.34 229.126C462.573 228.765 462.808 228.402 463.035 228.031C463.068 227.975 463.105 227.922 463.139 227.866C463.192 227.777 463.24 227.681 463.295 227.593C463.691 226.932 464.075 226.258 464.448 225.569C464.512 225.449 464.58 225.332 464.644 225.21C465.049 224.45 465.437 223.673 465.813 222.884C465.851 222.806 465.892 222.733 465.928 222.654C465.965 222.576 465.997 222.493 466.033 222.413C466.492 221.429 466.929 220.426 467.341 219.402C467.367 219.341 467.395 219.284 467.419 219.222C467.461 219.118 467.497 219.009 467.537 218.905C467.856 218.096 468.161 217.279 468.449 216.451C468.464 216.41 468.481 216.37 468.496 216.329C468.496 216.317 468.509 216.304 468.509 216.292C468.773 215.524 469.023 214.745 469.26 213.961C469.287 213.877 469.315 213.794 469.34 213.712C469.384 213.568 469.42 213.422 469.461 213.278C469.617 212.747 469.767 212.214 469.909 211.68C469.948 211.534 469.992 211.393 470.029 211.247C470.055 211.151 470.075 211.054 470.099 210.958C470.237 210.417 470.367 209.873 470.491 209.328C470.525 209.178 470.565 209.03 470.599 208.881C470.612 208.842 470.613 208.803 470.621 208.765C470.777 208.057 470.924 207.346 471.057 206.632C471.057 206.622 471.057 206.614 471.071 206.605C471.088 206.51 471.101 206.416 471.119 206.321C471.228 205.72 471.331 205.12 471.424 204.516C471.437 204.464 471.443 204.412 471.449 204.361C471.481 204.162 471.503 203.962 471.531 203.764C471.596 203.308 471.66 202.854 471.716 202.399C471.729 202.31 471.741 202.221 471.752 202.132C471.775 201.938 471.789 201.742 471.811 201.548C471.856 201.125 471.9 200.702 471.939 200.278C471.952 200.153 471.967 200.029 471.977 199.905C471.991 199.737 471.997 199.569 472.009 199.401C472.043 198.976 472.071 198.549 472.095 198.122C472.108 197.965 472.119 197.806 472.128 197.649C472.128 197.516 472.128 197.383 472.141 197.25C472.16 196.803 472.172 196.356 472.181 195.908C472.181 195.722 472.197 195.536 472.2 195.35C472.201 195.26 472.2 195.172 472.2 195.082C472.2 194.548 472.199 194.012 472.187 193.478C472.187 193.316 472.188 193.153 472.187 192.989C472.185 192.957 472.187 192.924 472.187 192.892C472.165 192.126 472.129 191.366 472.079 190.608C472.079 190.564 472.079 190.52 472.079 190.477C472.065 190.356 472.053 190.237 472.044 190.115C471.995 189.449 471.932 188.786 471.859 188.125C471.844 187.998 471.839 187.872 471.823 187.746C471.788 187.45 471.751 187.156 471.712 186.861C471.612 186.125 471.499 185.402 471.373 184.694C471.36 184.622 471.344 184.553 471.331 184.481C471.297 184.298 471.259 184.121 471.223 183.941C471.113 183.374 470.995 182.817 470.868 182.27C470.817 182.052 470.765 181.833 470.713 181.618C470.672 181.454 470.637 181.285 470.595 181.124C470.511 180.798 470.415 180.489 470.323 180.172C470.253 179.926 470.187 179.678 470.115 179.437C469.944 178.88 469.763 178.338 469.575 177.806C469.529 177.678 469.491 177.544 469.443 177.417C469.205 176.764 468.952 176.132 468.687 175.517C468.615 175.346 468.533 175.184 468.459 175.016C468.261 174.578 468.061 174.148 467.849 173.729C467.743 173.518 467.631 173.314 467.521 173.108C467.331 172.748 467.135 172.394 466.933 172.05C466.811 171.844 466.685 171.638 466.561 171.437C466.356 171.11 466.147 170.79 465.935 170.479C465.805 170.29 465.676 170.1 465.544 169.916C465.312 169.598 465.075 169.293 464.835 168.992C464.712 168.84 464.592 168.681 464.467 168.531C464.144 168.147 463.813 167.783 463.473 167.431C463.427 167.382 463.381 167.328 463.333 167.28C462.945 166.885 462.545 166.514 462.137 166.163C462.015 166.055 461.885 165.961 461.76 165.857C461.472 165.621 461.181 165.39 460.884 165.177C460.725 165.062 460.563 164.956 460.403 164.846C460.128 164.664 459.852 164.486 459.572 164.32C459.399 164.218 459.227 164.119 459.052 164.025C458.769 163.871 458.483 163.729 458.195 163.593C458.021 163.512 457.849 163.429 457.673 163.354C457.359 163.221 457.041 163.104 456.721 162.992C456.567 162.94 456.416 162.878 456.261 162.829C455.788 162.681 455.308 162.55 454.823 162.449L194.179 108.412C194.668 108.512 195.149 108.642 195.625 108.793" fill="url(#paint7_linear_48_1949)"/>
<defs>
<linearGradient id="paint0_linear_48_1949" x1="233.598" y1="290.035" x2="625.591" y2="359.587" gradientUnits="userSpaceOnUse">
<stop stop-color="#7155F7"/>
<stop offset="0.251164" stop-color="#442479"/>
<stop offset="0.379479" stop-color="#442479"/>
<stop offset="0.823926" stop-color="#442479"/>
<stop offset="1" stop-color="#7155F7"/>
</linearGradient>
<linearGradient id="paint1_linear_48_1949" x1="322.783" y1="206.464" x2="507.537" y2="379.005" gradientUnits="userSpaceOnUse">
<stop stop-color="#AE6EFE"/>
<stop offset="0.658048" stop-color="#785EF9"/>
<stop offset="0.976856" stop-color="#7155F7"/>
<stop offset="1" stop-color="#7155F7"/>
</linearGradient>
<linearGradient id="paint2_linear_48_1949" x1="351.993" y1="202.29" x2="467.888" y2="362.613" gradientUnits="userSpaceOnUse">
<stop stop-color="white"/>
<stop offset="1" stop-color="white" stop-opacity="0"/>
</linearGradient>
<linearGradient id="paint3_linear_48_1949" x1="351.991" y1="202.293" x2="467.886" y2="362.616" gradientUnits="userSpaceOnUse">
<stop stop-color="#BD9CF5"/>
<stop offset="1" stop-color="#DD76F7"/>
</linearGradient>
<linearGradient id="paint4_linear_48_1949" x1="340.054" y1="233.638" x2="520.652" y2="377.947" gradientUnits="userSpaceOnUse">
<stop stop-color="#FDB5FF"/>
<stop offset="1" stop-color="#FC89FF"/>
</linearGradient>
<linearGradient id="paint5_linear_48_1949" x1="361.047" y1="239.69" x2="458.708" y2="334.917" gradientUnits="userSpaceOnUse">
<stop stop-color="#AE6EFE"/>
<stop offset="0.658048" stop-color="#785EF9"/>
<stop offset="0.976856" stop-color="#7155F7"/>
<stop offset="1" stop-color="#7155F7"/>
</linearGradient>
<linearGradient id="paint6_linear_48_1949" x1="197.911" y1="187.99" x2="174.847" y2="113.686" gradientUnits="userSpaceOnUse">
<stop stop-color="#FDB5FF"/>
<stop offset="1" stop-color="#FC89FF"/>
</linearGradient>
<linearGradient id="paint7_linear_48_1949" x1="337.015" y1="137.195" x2="319.385" y2="218.608" gradientUnits="userSpaceOnUse">
<stop stop-color="#FDB5FF"/>
<stop offset="0.085844" stop-color="#F16D92"/>
<stop offset="0.184338" stop-color="#F16D92"/>
<stop offset="0.548788" stop-color="#DB5CA2"/>
<stop offset="0.566792" stop-color="#DB5CA2"/>
<stop offset="0.830029" stop-color="#DB5CA2"/>
<stop offset="1" stop-color="#FDAAFF"/>
</linearGradient>
</defs>
</svg>
